<?xml version="1.0" encoding="iso-8859-1"?>
<!-- Uploaded to: SVG Repo, www.svgrepo.com, Generator: SVG Repo Mixer Tools -->
<svg height="800px" width="800px" version="1.1" id="Capa_1" xmlns="http://www.w3.org/2000/svg" xmlns:xlink="http://www.w3.org/1999/xlink" 
	viewBox="0 0 56.5 56.5" xml:space="preserve">
<g>
	<g>
		<path style="fill:#ED5E90;" d="M54.5,48.969h-5.568c1.003-0.475,1.784-1.389,1.949-2.449c0.134-0.854,0.198-1.699,0.198-2.584
			c0.001-5.372-2.429-10.414-6.841-14.197c-3.981-3.414-9.153-5.41-14.7-5.74V20.06c0.29,0.166,0.621,0.269,0.979,0.269
			c1.092,0,1.979-0.886,1.979-1.979s-0.887-1.979-1.979-1.979c-0.748,0-1.391,0.419-1.727,1.03
			c-0.083-0.022-0.163-0.051-0.253-0.051c-0.089,0-0.169,0.029-0.251,0.051c-0.337-0.611-0.979-1.03-1.727-1.03
			c-1.093,0-1.979,0.886-1.979,1.979s0.886,1.979,1.979,1.979c0.357,0,0.688-0.103,0.978-0.268v3.879
			c-12.6,0.174-22.79,9.074-22.79,19.996c0,0.845,0.061,1.708,0.182,2.564c0.152,1.07,0.926,1.991,1.928,2.469H2
			c-1.103,0-2,0.897-2,2s0.897,2,2,2h52.5c1.103,0,2-0.897,2-2S55.603,48.969,54.5,48.969z M27.914,25.931
			c5.682,0,11.017,1.892,15.022,5.327c3.961,3.396,6.143,7.899,6.143,12.679c0,0.779-0.057,1.524-0.175,2.276
			c-0.089,0.568-0.788,1.106-1.439,1.106H8.317c-0.644,0-1.328-0.534-1.408-1.099c-0.107-0.764-0.162-1.532-0.162-2.284
			C6.747,34.009,16.243,25.931,27.914,25.931z M54.5,51.969H2c-0.551,0-1-0.448-1-1s0.449-1,1-1h52.5c0.552,0,1,0.448,1,1
			S55.052,51.969,54.5,51.969z"/>
		<path style="fill:#ED5E90;" d="M11.696,43.974c0.01,0,0.021,0.001,0.031,0.001c0.262,0,0.482-0.205,0.499-0.47
			c0.006-0.102,0.75-10.229,11.299-14.125c0.259-0.096,0.392-0.383,0.296-0.643c-0.096-0.259-0.385-0.391-0.643-0.296
			C12,32.57,11.233,43.338,11.227,43.446C11.21,43.721,11.42,43.958,11.696,43.974z"/>
		<path style="fill:#ED5E90;" d="M16.2,14.099c2.546,1.485,1.952,5.645,1.946,5.687c-0.042,0.273,0.146,0.528,0.419,0.569
			c0.026,0.004,0.051,0.006,0.076,0.006c0.243,0,0.456-0.177,0.493-0.424c0.03-0.198,0.706-4.873-2.43-6.701
			c-1.857-1.085-2.63-2.371-2.734-3.213c-0.043-0.349,0.025-0.631,0.192-0.794c0.197-0.193,0.201-0.51,0.008-0.707
			c-0.192-0.197-0.51-0.201-0.707-0.008c-0.395,0.386-0.567,0.966-0.485,1.631C13.15,11.543,14.355,13.022,16.2,14.099z"/>
		<path style="fill:#ED5E90;" d="M38.866,20.97c0.025,0,0.051-0.002,0.076-0.006c0.273-0.042,0.461-0.297,0.419-0.57
			c-0.006-0.042-0.608-4.196,1.945-5.687c1.846-1.078,3.05-2.556,3.222-3.954c0.082-0.666-0.09-1.245-0.485-1.631
			c-0.198-0.192-0.515-0.189-0.707,0.008c-0.193,0.198-0.189,0.514,0.008,0.707c0.167,0.164,0.235,0.445,0.192,0.794
			c-0.104,0.842-0.876,2.128-2.733,3.213c-3.135,1.829-2.46,6.503-2.43,6.701C38.411,20.793,38.624,20.97,38.866,20.97z"/>
		<path style="fill:#ED5E90;" d="M28.115,13.296c0.095,0.151,0.257,0.234,0.424,0.234c0.091,0,0.183-0.025,0.265-0.077
			c0.234-0.147,0.305-0.456,0.158-0.689c-0.013-0.019-1.18-1.909-0.085-2.917c1.101-1.013,1.613-2.089,1.521-3.197
			c-0.149-1.822-1.903-2.99-1.978-3.039c-0.231-0.15-0.541-0.085-0.692,0.145c-0.151,0.231-0.086,0.541,0.145,0.692
			c0.014,0.009,1.419,0.943,1.529,2.284c0.064,0.785-0.34,1.585-1.203,2.379C26.5,10.676,28.048,13.19,28.115,13.296z"/>
	</g>
</g>
</svg>