<?xml version="1.0" encoding="utf-8"?>
<!-- Generator: Adobe Illustrator 26.0.3, SVG Export Plug-In . SVG Version: 6.00 Build 0)  -->
<svg version="1.0" id="katman_1" xmlns="http://www.w3.org/2000/svg" xmlns:xlink="http://www.w3.org/1999/xlink" x="0px" y="0px"
	 viewBox="0 0 600 450" style="enable-background:new 0 0 600 450;" xml:space="preserve">
<style type="text/css">
	.st0{fill:#FFD002;}
	.st1{fill:#1C1B20;}
</style>
<path class="st0" d="M315,112.5c-0.8,0-1.6,0-2.3,0.2c-1,0-2.1,0.2-3.1,0.2c-2,0-3.9,0-6,0.2l-5.3,0.6h-1.4c-0.4,0-0.8,0-1.2,0.2
	l-2.7,0.4h0.4c-1.4,0.2-2.9,0.4-4.3,0.8l-1.8,0.4L285,116c-0.6,0.2-1.4,0.2-2,0.4c-0.8,0.2-1.6,0.4-2.1,0.6
	c-0.8,0.2-1.8,0.4-2.5,0.6l-1.6,0.4c-1.4,0.4-2.5,0.6-3.9,1c-1.4,0.4-2.9,0.6-4.3,1c-1.8,0.6-3.7,1.2-5.5,1.8c-1,0.4-2,0.6-2.9,1
	l-0.6,0.2c-2.9,1-6,2-9,3.1c-1.6,0.6-2.9,1.4-4.5,2.1c-1.2,0.6-2.1,1.2-3.1,1.8l-1,0.6c-0.6,0.4-1,0.8-1.2,1.4
	c-2.3,1.4-4.3,2.3-5.9,3.5c-1.8,1.4-3.7,2.7-5.5,4.1l-2,1.6c-1.8,1.4-3.5,2.9-5.3,4.3c-0.6,0.6-1.2,1-1.8,1.6l-1.4,1.2
	c-0.6,0.4-1.2,1-1.8,1.6c-1,1-2.1,2-3.3,3.1c-0.4,0.4-0.6,0.8-1,1.2l-0.2,0.2c-0.6,0.8-1.2,1.6-1.8,2.1c-0.8,1.2-1.8,2.1-2.5,3.5
	c-1.6,2.1-2.9,4.7-4.3,7.4c-1.6,2.9-2.7,5.9-3.5,8.6c-0.4,1.2-0.6,2.5-1,3.7l-0.2,1c-0.4,2.1-0.8,4.1-1,6.2v-0.2
	c-0.2,1.4-0.4,2.7-0.4,4.1c0,1.4-0.2,2.7-0.4,4.1c-0.2,1.4-0.2,2.9-0.2,4.3c0,0.8,0,1.6-0.2,2.1c0,0.6,0,1.4-0.2,2
	c-0.2,2.7-0.2,5.7,0,8.6c0,3.1,0.2,5.9,0.6,8.4l0.4,2.5l0.6,5.3v-0.2c0.2,1.2,0.4,2.3,0.6,3.7c0.2,1.2,0.4,2.1,0.8,3.3l0.2,0.4
	c0.2,0.6,0.4,1.4,0.4,2c0.4,1.8,0.8,3.7,1.6,5.7c0.4,1,0.8,2.1,1.2,3.1c0.4,1,0.8,2.1,1.2,3.1l0.4,1c0,0.2,0.2,0.4,0.2,0.6
	c0.4,0.6,0.6,1.2,1,1.8l0.8,0.8l1,1c0.2,0,0.2,0.2,0.4,0.2c0.4,0.2,0.8,0.2,1.2,0.2c1,0,2,0.2,3.1,0.2c1.2,0,2.1,0,3.3-0.2
	c2.7-0.4,5.5-1.2,8-2c2.5-0.8,4.9-1.8,7.4-2.9c1.6-0.8,3.3-1.4,4.9-2.1c1.8-0.8,3.5-1.6,5.3-2.3c1.2-0.6,2.3-1,3.5-1.6l5.3-2.3h0.2
	c3.7-1.6,7.2-3.1,11.1-4.5c3.5-1.2,6.8-2.3,10.3-3.5c2.7-1,5.5-2,8.2-2.9c2.7-0.8,5.5-1.8,8.2-2.3c2.7-0.8,5.5-1.4,8.2-2.1
	c2.7-0.8,5.5-1.6,8.4-2.3c2.3-0.6,4.5-1.2,6.8-1.6c2.1-0.8,4.5-1.8,6.6-2.5l0.8-0.2c1.4-0.6,2.7-1.2,4.1-1.6
	c1.2-0.4,2.3-0.8,3.3-1.4c1-0.4,2.1-0.8,3.1-1.2c1.8-0.6,3.5-1.4,5.3-2.1c1-0.4,2.1-1,3.1-1.6l0.2-0.2c0.8-0.4,1.6-0.8,2.5-1.2
	c2.1-0.8,4.3-1.4,6.4-2l1-0.2l1.4-0.4c2.1-0.6,4.5-1.2,6.6-2c2.1-0.8,4.3-1.6,6.2-2.3l1.6-0.6c3.3-1.2,5.9-2.3,8.2-3.3
	c0.4-0.2,1-0.4,1.6-0.6c0.6-0.2,1.2-0.4,1.6-0.6c1.4-0.6,2.9-1.2,4.3-1.8c1.8-0.8,3.5-1.4,5.3-2.1h0.2c1.4-0.6,2.7-1.2,4.3-1.8
	l1.6-0.8c0.8-0.4,1.4-0.8,1.8-1.4c0.4-0.6,0.6-1.6,0.4-2.3c-0.2-1-1-1.8-2-2c-0.2-0.6-0.4-1.2-0.8-1.8l-0.2-0.6
	c-0.6-1.6-1.2-2.9-1.8-4.5l-0.6-1.8c-1-2.5-2.1-4.9-3.3-7.2l-1.4-2.7c-2.1-4.5-4.3-9-7-13.3c-1.6-2.5-3.1-4.9-5.1-7.6l-0.4-0.6
	c-1.8-2.3-3.5-4.7-5.5-7c-2.3-2.9-4.5-5.1-6.4-7l-0.2-0.2c-2-2-3.9-3.9-6-5.7c-2.1-2-4.5-3.7-7-5.7c-1.2-0.8-2.3-1.6-3.5-2.1
	c-1.4-0.8-2.9-1.4-4.5-2c-2.3-0.8-4.9-1.8-7.6-2.3c-3.1-0.8-5.9-1.4-8.4-1.6c-1.8-0.2-3.5-0.2-4.9-0.2
	C315.8,112.5,315.4,112.5,315,112.5L315,112.5z M293.8,134.2c-1.4-1.2-2.1-2.9-2.3-4.7c-0.2-1.2,0.2-2.3,0.4-3.5
	c0.4-1.4,1.6-2.1,2.9-2.1c0.2,0,0.6,0,0.8,0.2c0.2,0,0.6,0.2,0.8,0.4c0.4-0.2,1-0.2,1.4-0.2c0.8,0,1.6,0,2.1,0.2
	c1.2,0.4,2.1,1.2,2.7,2.1c0.6,1,1.2,2,1.2,3.1c0,1-0.2,2-0.6,2.9c-0.4,0.8-0.8,1.6-1.6,2.1c-0.4,0.4-0.8,0.6-1.4,0.8
	c-0.6,0.2-1.2,0.4-1.8,0.4C296.7,135.9,294.9,135.3,293.8,134.2z M337.1,169.5c-1-0.4-1.8-0.8-2.5-1.6c-1.2-1.2-1.8-2.5-2.3-4.1
	c-0.4-1-0.8-2-1.2-3.1c-0.6-1.4-1.4-2.7-2.1-3.9c-0.8-1-1.8-2.1-2.7-3.1c-1-1-2.1-2-3.1-2.7c-0.8-0.6-1.8-1.4-2.7-2
	c-1-0.8-2-1.2-3.1-1.8c-0.6-0.2-1.2-0.4-1.8-0.8c-0.6-0.2-1.4-0.6-1.8-1c-0.6-0.4-1.2-0.8-1.8-1.4c-1-1.2-1.8-2.5-1.6-4.1
	c0.2-1.2,0.4-2.1,0.8-3.3c0.6-1.4,1.6-2.5,2.9-3.3c0.6-0.4,1.2-0.8,1.8-0.8c0.6-0.2,1.2-0.2,1.8-0.2c0.8,0,1.4-0.2,2.1-0.2h0.2
	c0.4,0,0.8,0.2,1.2,0.4c1.4,0,2.9,0.2,4.3,0.4h0.6c0.8,0.2,1.6,0.2,2.1,0.6c1,0.4,1.8,0.8,2.7,1.4c1.4,1,2.7,1.6,3.7,2.7
	c2.3,2.3,4.3,5.1,5.9,8c0.8,1.4,1.4,2.7,1.8,4.3c0.4,1.4,0.8,2.7,1.2,4.3c0.2,1.6,0.6,2.9,0.6,4.5c0,1.4,0,2.7-0.2,4.1
	c-0.2,1-0.2,1.8-0.4,2.7c-0.2,0.6-0.4,1-0.6,1.6c-0.2,0.2-0.2,0.4-0.4,0.6c-0.2,0.2-0.6,0.8-0.8,1c-0.6,0.4-1,0.8-1.6,1
	c-0.4,0.2-0.8,0.2-1.2,0.2h-0.4C338,169.7,337.7,169.7,337.1,169.5L337.1,169.5z M335.1,187.6c-0.4-0.8-0.8-1.8-1-2.5
	c-0.2-1-0.4-1.8-0.4-2.7c0-0.8,0-1.8,0.2-2.5c0.2-1,0.6-2,1.2-2.9c0.4-0.6,1.2-1.2,1.8-1.4c0.2,0,0.6-0.2,0.8-0.2
	c0.6,0,1,0.2,1.6,0.4l0.6,0.6c0.4,0.2,1,0.6,1.2,1.2c0.4,0.6,0.4,1.4,0.4,2c0.2,0.2,0.4,0.4,0.4,0.8c0.6,0.8,1.2,1.8,1.2,2.7
	c0.2,1,0.2,2-0.2,2.9c-0.2,0.8-0.6,1.6-1.2,2.3c-0.6,0.8-1.4,1.4-2.3,1.8c-0.2,0-0.6,0.2-0.8,0.2
	C336.9,189.8,335.7,188.8,335.1,187.6z M250.6,241.1c0,0-0.2,0-0.2,0.2C250.5,241.1,250.5,241.1,250.6,241.1z M353.3,264.9
	c-1.8,0-3.5,0-5.5,0.2h-1c-2.7,0.2-5.5,0.2-8,0.4l-3.3,0.2c-2,0.2-3.9,0.4-5.9,0.4c-3.1,0.2-6,0.4-9.2,0.6c-1.4,0-2.7,0.2-4.1,0.2
	c-1.6,0-3.3,0.2-4.9,0.4l-3.1,0.2c-2.1,0.2-4.3,0.4-6.4,0.4c-1.8,0-3.5,0.2-5.3,0.2h-4.9c-2,0-4.1-0.2-6-0.2h-2.3
	c-1.4,0-2.9,0-4.3,0.2c-1.8,0-3.3,0-5.1,0.2h-2.3c-2.1,0-4.5,0.2-6.6,0.2H253c-1,0-1.8,0-2.7-0.2h-1.8c-2.7,0-5.7-0.2-8.6-0.4
	c-1.2,0-2.3-0.2-3.5-0.2c-1.8-0.2-3.7-0.2-5.5-0.4h-13.5c-1.2,0-2.1,0-3.3-0.2h-3.7c-1.4,0-2.7,0-4.3-0.2c-0.6-1-1.6-1.4-2.5-1.4
	s-1.8,0-2.7,0.2h-0.6c-0.2,0-0.4,0-0.6-0.2H199c-0.6,0-1,0.2-1.4,0.4c-0.8,0-2,0.2-3.1,0.4c-1.6,0.2-2.9,0.8-4.3,1.6
	c-1.2,0.6-2.3,1.4-3.3,2.1s-1.8,1.8-2.1,2.9l-0.6,1.2c-0.2,0.8-0.2,1.8-0.2,2.3c0.2,1.6,1.6,2.7,2.3,3.1c0.2,0.2,0.4,0.2,0.6,0.4
	c0.2,0.2,0.4,0.2,0.6,0.4c0.2,0.2,0.6,0.4,0.8,0.6l0.4,0.2c1,0.6,2,1.2,3.3,1.6l0.4,0.2c1.2,0.4,2.1,0.8,3.3,1
	c0.6,0.2,1.4,0.2,2,0.4c0.8,0.2,1.4,0.4,2.1,0.4c2.1,0.6,4.5,0.6,6.8,0.8c0.8,0,1.6,0,2.1,0.2c0.6,0,1.2,0,1.8,0.2
	c0.8,0,1.6,0.2,2.1,0.2c1.4,0,2.9,0.2,4.3,0.2c2.3,0.2,4.7,0.2,6.8,0.2h29.5c1.8,0,3.3,0,5.1-0.2c1.2,0,2.5,0,3.7-0.2h21.5
	c1.8,0,3.3,0,5.1,0.2c1.8,0,3.7,0.2,5.5,0.4c1.2,0.2,2.3,0.2,3.5,0.2c3.5,0.2,6.2,0.4,9,0.4h18.1c3.7,0,7,0,9.9,0.2
	c1,0,2.1,0,3.1,0.2c2,0,4.1,0.2,6,0.2h9.4c3.1-0.2,6-0.2,9.2-0.4c1.8,0,3.3-0.2,5.1-0.4c1.2-0.2,2.3-0.2,3.3-0.4
	c1.2,0,2.3-0.2,3.5-0.2h0.8c1,0,2,0,2.9-0.2h1.2c2.3-0.2,4.7-0.2,6.8-0.2h5.9c1.4,0,2.7,0,4.1-0.2c1.4,0,2.7-0.4,4.1-0.6
	c1.2-0.2,2.1-0.4,3.3-0.8l0.8-0.4c1-0.4,2-0.8,2.7-1.2c0.8-0.4,1.4-1,2.1-1.4l0.6-0.4c0.4-0.2,0.6-0.4,1-0.6c0.8-0.4,1.4-1,2-1.6
	c0.4-0.4,1-1,1.4-1.8c0.6-1,0.8-1.6,1-2.3v-0.2c0-0.4,0.2-0.8,0-1.2c0-0.8-0.2-1.4-0.6-2.1c-0.2-0.6-1-1.2-1.6-1.6
	c-0.2-0.2-0.6-0.4-0.8-0.4l-2.9-1.2l-0.8-0.2c-1.2-0.4-2.3-0.8-3.7-1.2c-1.4-0.4-2.9-0.6-4.1-1c-3.1-0.6-6.2-1-9.6-1.2
	c-1.6,0-3.1-0.2-4.9-0.2c-1.4,0-2.7-0.2-4.1-0.2c-0.6,0-1.2,0-2-0.2c-0.8,0-1.6-0.2-2.3-0.2h-23.8
	C353.7,263.9,353.3,264.9,353.3,264.9z"/>
<path class="st0" d="M198.6,265.3c-1,0-2,0.2-2.7,0.4c-1,0.2-1.8,0.8-2.5,1.4c-1.4,1-2,2.5-1,4.1c0.8,1.4,2.7,2,4.1,1
	c0.4-0.4,0.8-0.6,1.4-0.8c0.2,0,0.6-0.2,0.8-0.2c1.4-0.2,2.5-0.2,3.9-0.2s2.7,0.2,4.1,0.2c1.6,0.2,2.9,0,4.3,0h4.3
	c5.7,0.2,11.3,0.2,16.8,0.2H245c1.6,0,3.1,0.2,4.5,0.4c2.7,0.2,5.7,0.4,8.4,0.6c2.7,0.2,5.5,0.6,8.2,0.6s5.7,0.2,8.4,0.4
	c2.9,0.2,5.7,0.2,8.6,0.2h30.8c1.4,0,2.7,0.2,4.1,0.4c2.7,0.2,5.5,0.6,8,0.8c2.5,0.2,5.3,0.4,7.8,0.6c2.7,0.4,5.5,1,8.2,1.2
	c3.1,0.4,6.2,0.6,9.4,0.8c1.6,0,2.9-1.4,2.9-2.9s-1.4-2.9-2.9-2.9c-1.8,0-3.3-0.2-5.1-0.2c-1.4-0.2-2.7-0.2-4.1-0.4
	c-1.4-0.2-2.9-0.4-4.3-0.6c-1.6-0.2-3.1-0.6-4.7-0.6c-2.9-0.2-6-0.4-9-0.8c-2.9-0.4-5.9-0.6-8.8-0.8c-2.9-0.2-5.9-0.2-8.8-0.2h-27.5
	c-2.7,0-5.7-0.2-8.4-0.4h-4.3c-1.4,0-2.9-0.2-4.3-0.2l-8.2-0.6c-2.9-0.2-5.9-0.6-8.8-0.8c-1.4-0.2-2.7,0-4.3,0h-21.5
	c-2.7,0-5.7-0.2-8.4-0.2c-1.6,0-2.9,0.2-4.5,0c-1.4,0-2.7-0.2-3.9-0.2h-1.2C200.3,265.1,199.5,265.1,198.6,265.3L198.6,265.3z"/>
<path class="st1" d="M338,157.8c-0.4,0.6-1,1-1.6,1.2c0.2,0.4,0.2,0.8,0.4,1.2c0.4,0.8,0.6,1.8,1,2.5c0,0.2,0.2,0.2,0.2,0.4
	c0-0.2,0-0.4,0.2-0.6c0.2-1.6,0.2-3.3,0-4.9C338.2,157.6,338,157.8,338,157.8z M180.4,258.8c-1,0.2-1.8,0.4-2.7,0.8
	c-1.4,0.6-2.5,1.2-3.7,2.1c-0.8,0.8-1.6,1.6-2.3,2.5c-0.4,0.6-0.6,1-0.8,1.6s-0.2,1.4-0.4,2c-0.2,0.8-0.2,1.8,0,2.5
	c0.2,1,0.2,2,0.6,2.7c0.2,0.6,0.4,1.2,0.6,1.6c0.2,0.6,0.6,1,1,1.6s1.2,1,1.8,1.4c0.4,0.4,1,0.6,1.6,0.8c1.6,0.8,3.3,1.2,5.1,1.8
	c1.6,0.6,3.1,0.6,4.7,1c1,0.2,2,0.4,2.9,0.4c1,0.2,1.8,0.2,2.7,0.2c1.4,0.2,2.5,0.4,3.9,0.6c1.2,0.2,2.5,0.2,3.7,0.4
	c2.7,0.4,5.7,0.2,8.4,0.4c2.9,0.2,5.7,0.6,8.6,0.8c1.4,0,2.9,0.2,4.3,0.2h13.1c2.7,0,5.5-0.2,8.4-0.2c1.4,0,2.7-0.2,4.3-0.2h26.1
	c1.4,0,2.7,0.2,4.1,0.2c2.9,0.2,5.9,0,9,0.2c2.7,0.2,5.5,0.2,8.2,0.2c2.9,0,5.7,0.4,8.6,0.4h12.9c1.4,0,2.9,0.2,4.3,0.2
	c2.7,0.2,5.5,0,8.4,0h8.4l8.8,0.6c2.9,0.4,5.9,0.4,8.8,0.4c2.7,0.2,5.7,0.4,8.4,0.4h13.7c1.4,0,2.7-0.2,4.1-0.2
	c2.7,0,5.5-0.2,8.2-0.2c2.5,0,4.9-0.2,7.4-0.4c2-0.2,3.9-0.6,5.9-1c1.6-0.4,3.1-1.2,4.7-2c1.2-0.6,2.3-1.6,3.3-2.5
	c0.6-0.6,1-1,1.4-1.6c0.4-0.6,0.6-1.2,1-1.8c-0.2,0.2-0.2,0.4-0.4,0.8c0.4-1,0.8-2,1-2.9s0.2-2,0.2-2.9c0-1.2-0.4-2.1-0.8-3.1
	c-0.4-0.8-1-1.4-1.4-2c-0.2-0.4-0.6-0.8-1-1c-0.4-0.4-1-0.8-1.6-1.2c-0.6-0.6-1.2-0.8-2.1-0.8c-0.8,0-1.6,0.4-2.1,0.8
	c-0.6,0.6-0.8,1.4-0.8,2.1c0,0.8,0.2,1.6,0.8,2.1c0.4,0.4,1,0.8,1.4,1.2c0.2,0.2,0.6,0.6,0.8,1c0.2,0.2,0.4,0.4,0.4,0.6
	s0,0.2,0.2,0.4v1.6c-0.2,0.6-0.2,1.2-0.4,1.6c-0.2,0.2-0.2,0.4-0.4,0.8l-1.4,1.4c-1,0.6-1.8,1.2-2.9,1.8c-1.8,0.8-3.7,1-5.7,1.2
	c-2.1,0.2-4.5,0.4-6.6,0.6h-4.1c-1.4,0-2.7,0.2-4.1,0.2c-2.7,0-5.5,0.2-8.2,0.2h-14c-1.4,0-2.7-0.2-4.1-0.2s-2.9-0.2-4.3-0.2
	c-1.4,0-2.9,0-4.3-0.2c-2.9-0.2-5.9-0.6-9-0.6c-1.4,0-2.7-0.2-4.1-0.2h-12.7c-1.4,0-2.7-0.2-4.1-0.2h-12.9c-2.9,0-5.7-0.2-8.6-0.4
	c-2.7-0.2-5.5,0-8.2-0.2c-2.9-0.2-5.9,0-8.8-0.2c-1.6,0-2.9-0.2-4.3-0.2H260c-5.9,0-11.5-0.2-17.4,0.2c-1.4,0-2.9,0-4.3,0.2
	c-1.4,0-2.7,0.2-4.1,0.2h-8.4c-2.7,0-5.5,0-8.4-0.2c-2.5-0.2-5.3-0.4-7.8-0.6c-2.5-0.2-5.1-0.4-7.8-0.4c-2.5,0-4.9-0.4-7.4-0.8
	c-0.8-0.2-1.8-0.2-2.5-0.4c-1-0.2-2.1-0.2-3.1-0.4c-0.8-0.2-1.6-0.2-2.3-0.4l-2.9-0.6c-1-0.2-2-0.6-2.7-0.8
	c-0.8-0.2-1.8-0.6-2.5-0.8c-0.4-0.2-0.8-0.4-1.2-0.8l-0.2-0.2c-0.2-0.2-0.2-0.4-0.4-0.6c-0.2-0.4-0.4-1-0.4-1.6v-2.1
	c0-0.2,0-0.4,0.2-0.6c0.2-0.2,0.2-0.4,0.4-0.8l1.2-1.2c0.4-0.4,1-0.6,1.4-0.8c0.6-0.2,1.2-0.4,2-0.6h1c0.2,0,0.6,0,0.8,0.2
	c0.8,0.2,1.6,0.2,2.3-0.4c0.6-0.4,1.2-1,1.4-1.8c0.2-0.8,0.2-1.6-0.4-2.3c-0.4-0.6-1-1.2-1.8-1.4c-0.8-0.2-1.6-0.2-2.3-0.4h-0.6
	C181.4,258.8,180.8,258.8,180.4,258.8L180.4,258.8z M406.5,274.8c0,0.2-0.2,0.2-0.2,0.4C406.3,275,406.3,274.8,406.5,274.8z
	 M188.8,276.2h0.2H188.8z M191,282h0.4C191.1,282.2,191,282,191,282z"/>
<path class="st1" d="M186.3,258.6c-1.4,0-2.5,0.2-3.9,0.2c-1.6,0-2.9,1.4-2.9,2.9s1.4,2.9,2.9,2.9c1.4,0,2.5-0.2,3.7-0.2h4.1
	c2.7,0,5.3,0,8,0.2c2.7,0.2,5.5,0.2,8.2,0.4c2.9,0.2,5.9,0.4,8.6,0.6c1.4,0,2.9,0.2,4.3,0.2h8.8c1.6,0,2.9,0.2,4.5,0.2
	c2.7,0,5.7-0.2,8.4-0.2h8.8c2.9-0.2,6-0.2,9-0.2h9.2c2.9,0,5.9,0.2,8.6,0.2c3.1,0,6,0,9.2,0.2c6,0.2,12.1,0.2,18.1,0.2h13.1
	c1.6,0,3.1-0.2,4.5-0.2h4.7c1.4,0,2.9,0.2,4.3,0.2H348c2.9,0,5.9-0.2,8.8-0.2h16.4c2.5,0,4.9,0.2,7.4,0.2c1.4,0,2.7,0,4.3,0.2
	c1.4,0.2,2.5,0.2,3.9,0.2c1.2,0,2.5,0,3.7,0.2h-0.4c0.6,0,1.2,0.2,1.8,0.2c0.6,0,1.2,0.2,1.6,0.2c1,0.2,2.1,0.4,3.1,0.4
	c0.8,0.2,1.8,0.2,2.5,0.4c-0.2,0-0.6,0-0.8-0.2c1.8,0.2,3.3,0.6,5.1,1c1.6,0.4,3.1-0.6,3.5-2.1s-0.6-3.1-2-3.5
	c-2.1-0.6-4.3-1-6.4-1.2c0.2,0,0.6,0,0.8,0.2c-0.8-0.2-1.8-0.2-2.5-0.4c0.2,0,0.6,0,0.8,0.2c-1.4-0.2-2.7-0.4-4.3-0.6
	c-0.8-0.2-1.6-0.2-2.5-0.4c0.2,0,0.6,0,0.8,0.2c-1.6-0.2-3.1-0.4-4.7-0.4c-1.4,0-2.5,0-3.9-0.2c-2.5-0.4-5.1-0.2-7.6-0.4
	c-2.5-0.2-5.3-0.2-7.8-0.2h-8.4c-2.7,0-5.7,0-8.4,0.2c-1.6,0-2.9,0.2-4.5,0.2h-4.5c-5.9,0-11.7,0.2-17.6-0.2c-3.1-0.2-6,0-9.2,0.2
	c-2.9,0.2-5.9,0-9,0h-18.1c-2.9,0-5.7-0.2-8.6-0.2c-3.1,0-6,0-9.2-0.2c-5.9-0.2-11.7-0.2-17.6,0c-1.6,0-3.1,0.2-4.5,0.2h-4.3
	c-2.9,0-5.9,0-8.8,0.2c-2.9,0.2-5.7,0-8.6,0c-2.9-0.2-5.9,0-9-0.2c-2.9,0-5.9-0.4-8.8-0.6c-2.9-0.2-5.7-0.4-8.6-0.4
	c-2.7,0-5.5-0.4-8.2-0.4h-3.5C189.2,258.6,187.6,258.6,186.3,258.6z M395.4,261.6H395H395.4z M395,261.6h-0.4
	C394.8,261.4,394.8,261.6,395,261.6z"/>
<path class="st1" d="M374.3,192.1c-1.6,0.4-3.1,1-4.7,1.6l-4.7,1.8c-2.7,1-5.7,2-8.4,3.1h-0.2h0.2c-0.2,0-0.2,0-0.4,0.2
	c-1,0.4-1.8,0.8-2.7,1.2c-2.5,1-5.1,2.1-7.6,3.1c-0.4,0.2-0.6,0.2-1,0.4c-2.7,1.2-5.5,2.1-8.2,3.1c-2.7,1-5.5,2.1-8.2,3.1
	c-1.4,0.4-2.7,1-4.1,1.4c-1.6,0.6-2.9,1.2-4.5,1.6l-4.1,1.2c-1.4,0.4-2.9,1-4.3,1.4c-2.9,1-6,1.8-9,2.5c-2.9,1-6,2-9,2.7
	c-5.9,2-11.7,3.7-17.6,5.7c-6,2-11.9,4.3-17.9,6.2l-8.8,2.9c-2.9,1-5.7,2.1-8.6,3.1l-13.5,5.3c-2.1,0.8-4.3,1.8-6.4,2.5l-7,2.9
	c0.2-0.2,0.4-0.2,0.8-0.4c-2,0.8-3.9,1.4-5.7,2.1l-5.9,2.3c0,0-0.2,0-0.2,0.2c-0.2,0-0.4,0.2-0.6,0.2c-1.2,0.4-2.1,1-3.3,1.6
	c-1.4,0.8-2.7,1.6-4.1,2.1c-1.4,0.8-1.8,2.7-1,4.1c0.4,0.6,1,1.2,1.8,1.4c0.8,0.2,1.6,0,2.3-0.4c2.1-1,4.3-2.3,6.4-3.3
	c0.2-0.2,0.6-0.2,0.8-0.4c0.6-0.2,1.2-0.6,1.8-0.8c2-0.8,4.1-1.6,6-2.3c2.5-1,5.1-2,7.4-3.1c-0.2,0.2-0.4,0.2-0.8,0.2
	c2.7-1.2,5.7-2.1,8.4-3.3c2.7-1.2,5.7-2.1,8.4-3.3l8.8-3.5c2.7-1.2,5.7-2.1,8.6-2.9c6-2,11.9-3.9,17.9-6c2.9-1,5.7-2,8.6-2.9
	l8.8-2.9c2.9-1,6-2,9.2-2.9c2.9-1,5.7-1.8,8.6-2.7c2.9-0.8,6-1.8,9-2.7c2.9-1,5.7-1.8,8.6-2.7c3.7-1.4,7.6-2.7,11.3-4.1
	c4.1-1.6,8-2.9,11.9-4.7c-0.2,0.2-0.4,0.2-0.8,0.4l4.1-1.8c2.3-1,4.7-2,6.8-2.9c-0.2,0-0.2,0-0.4,0.2l1.2-0.6c2.5-1,5.3-2,7.8-2.9
	c1.6-0.6,2.9-1.2,4.5-1.6c1.6-0.6,3.1-1,4.7-1.6c1.6-0.4,2.5-2,2-3.5c-0.4-1.2-1.6-2.1-2.9-2.1C374.9,191.9,374.5,191.9,374.3,192.1
	L374.3,192.1z M353.3,199.9c-0.2,0-0.2,0-0.4,0.2C353.1,199.9,353.3,199.9,353.3,199.9z M358.1,204c0.2,0,0.2-0.2,0.4-0.2
	C358.3,204,358.3,204,358.1,204z"/>
<path class="st1" d="M291.2,108c-1.4,0-2.9,0.2-4.3,0.2c-2.7,0.2-5.5,0.2-8.2,0.4c-3.1,0.4-6,0.8-9.2,1.2c-1.4,0.2-2.7,0.6-4.1,0.8
	c-1.4,0.4-2.7,0.6-4.1,0.8c-2.7,0.6-5.7,1.2-8.4,2c-2.7,0.8-5.3,1.6-7.8,2.5c-2.9,1-5.9,2.3-8.6,3.5c-2.5,1.2-5.1,2.3-7.6,3.7
	c-2.5,1.2-5.1,2.3-7.4,3.7c-4.1,2.1-8,4.9-11.7,7.8c-1.8,1.4-3.7,2.7-5.5,4.3l-2.3,2.3c-0.8,0.8-1.6,1.6-2.1,2.3
	c-1.6,1.6-2.9,3.1-4.3,4.7c-1.4,1.6-2.5,3.1-3.7,4.7l-2.3,2.9c-0.8,1-1.4,2.1-2,3.3c-1.4,2.3-2.5,4.9-3.5,7.4
	c-2.1,5.1-3.1,10.3-3.9,15.6l-0.6,4.1c-0.2,1.8-0.4,3.3-0.6,5.1c-0.4,2.7-0.4,5.7-0.6,8.6c-0.2,2.9-0.2,5.9,0,8.8
	c0.2,2.7,0.4,5.3,0.8,8c0.4,2.9,0.8,5.9,1.4,8.8c0.4,2.7,1,5.3,1.8,8c0.4,1.4,0.6,2.5,1,3.9c0.4,1.4,0.8,2.5,1.4,3.7
	c0.6,1.4,1.2,2.7,1.6,4.1c0.4,1.2,0.8,2.3,1.2,3.7c0.4,0.8,0.6,1.6,1,2.3c0.6,1.6,1.2,2.9,1.6,4.5l1.8,4.7l0.6,1.2
	c0.4,0.8,0.6,1.4,1.4,1.8c0.6,0.4,1.6,0.6,2.3,0.4c0.8-0.2,1.4-0.8,1.8-1.4c0.4-0.6,0.6-1.6,0.4-2.3c-0.4-0.8-0.8-1.8-1.2-2.5
	l-1.8-4.7c-0.4-1-0.6-2-1-2.9c-0.4-1-0.8-1.8-1.2-2.7c-0.4-1-0.8-2-1-3.1c-0.4-1.4-1-2.5-1.6-3.9c-1-2.3-1.8-4.9-2.3-7.2
	c-0.6-2.5-1.2-4.9-1.6-7.4c-0.6-2.7-1-5.3-1.2-8l-0.6-5.9c-0.2-2.5-0.4-5.3-0.4-7.8s0.2-5.1,0.2-7.8c0.2-2.5,0.4-4.9,0.8-7.4
	c0.2-1.8,0.6-3.3,0.8-4.9c0.4-1.8,0.6-3.7,1-5.5c0.8-3.3,1.6-6.6,2.7-9.8c0.8-1.8,1.6-3.5,2.5-5.3c0.8-1.6,1.8-3.1,2.9-4.7
	c0.6-0.8,1.2-1.4,1.8-2.1c0.4-0.6,0.8-1.2,1.4-1.8c1.8-2.1,3.7-4.3,5.5-6.2c2-2.1,4.1-4.3,6.2-6c1.4-1.2,2.9-2.1,4.3-3.3
	c1-0.8,2-1.6,3.1-2.1c1.2-0.8,2.1-1.6,3.3-2.3c2.3-1.4,4.7-2.5,7-3.7c5.1-2.3,9.9-4.9,15-7c4.9-2,9.9-3.7,15.2-4.9
	c2.7-0.6,5.5-1.2,8-1.8c1.4-0.2,2.7-0.6,3.9-1l4.1-0.6c2-0.2,4.1-0.6,6-0.6c2.1-0.2,4.1-0.2,6.2-0.2c2.3-0.2,4.5-0.4,6.8-0.2
	c2.1,0,4.3,0.2,6.4,0.6c2.1,0.4,4.3,1,6.4,1.6c2.1,0.6,4.3,1.2,6.4,2c1.6,0.8,2.9,1.6,4.5,2.3c1.6,0.8,3.1,1.6,4.7,2.5
	c1.4,0.8,2.7,1.6,3.9,2.5c1.4,1,2.9,2,4.3,3.1c1.6,1.2,2.9,2.3,4.5,3.7c1.4,1.4,2.7,2.5,4.3,3.7c1,0.8,2,1.8,3.1,2.7
	c1,1,2.1,1.8,3.1,2.7c2,1.8,3.7,3.5,5.3,5.7l1.8,2.3c0,0,0-0.2-0.2-0.2c1.6,2.1,3.1,4.5,4.7,6.6c1.4,2,2.5,3.9,3.7,6
	c1.4,2,2.3,4.1,3.7,6c0.8,1.2,1.4,2.3,2.1,3.5c0.6,1,1.2,2.1,1.8,3.1c0.8,1.4,1.6,2.9,2.1,4.5c0.6,1.4,1.4,2.5,2,3.9
	c0.4,0.8,0.6,1.6,1,2.3c0.4,1,0.6,1.8,1,2.7c0.2,0.8,0.6,1.4,0.8,2.1c0.2,0.4,0.4,0.8,0.4,1.2v1.8c-0.2,0.8-0.2,1.6,0.4,2.3
	c0.4,0.6,1,1.2,1.8,1.4c1.4,0.4,3.3-0.4,3.5-2c0.2-1,0.2-2.1,0.2-3.1c0-0.8-0.2-1.8-0.4-2.5c-0.4-0.8-0.6-1.6-1-2.3
	c-0.4-1-0.8-2.1-1.2-3.1c-0.6-1.2-1-2.5-1.6-3.7c-0.4-1.2-1.2-2.1-1.6-3.1c-0.6-1-1-2.1-1.6-3.3c-0.6-1.2-1.2-2.1-1.8-3.1
	c-0.6-1-1.2-2-1.8-3.1c-0.6-1.2-1.2-2.1-2-3.1c-0.6-1-1.2-2-1.6-2.9l-1.8-2.9c-1.2-2-2.3-3.9-3.7-5.7c-1.6-2.3-3.1-4.7-4.9-6.8
	c0.2,0.2,0.4,0.4,0.4,0.6c-1.2-1.6-2.1-2.9-3.5-4.5c-1-1.2-2.1-2.3-3.3-3.5s-2.3-2.1-3.7-3.3c-1.4-1.4-2.9-2.5-4.5-3.7
	c-0.8-0.6-1.6-1.4-2.3-2c-1.2-1-2.1-2-3.3-2.9c-2.1-1.8-4.3-3.3-6.4-4.9c-1.6-1.2-3.3-2.1-5.1-3.3c-2-1.2-3.9-2.1-5.9-3.3
	c-2.3-1.2-4.5-2.3-7-3.1c-1.2-0.4-2.5-0.8-3.7-1c-1.2-0.2-2.5-0.6-3.7-1c-2.7-0.8-5.7-1-8.4-1.2c-1.4,0-2.7-0.2-4.1-0.2
	C291.4,108,291.2,108,291.2,108z M341.8,130.9l0.2,0.2L341.8,130.9z M184.9,188.4v0.4C184.7,188.6,184.7,188.4,184.9,188.4z
	 M184.9,217.3v0.4V217.3z"/>
<path class="st1" d="M232.3,98.9c-0.8,0.2-1.8,0.2-2.5,0.4l-1.8,0.6c-1.2,0.4-2.3,1-3.5,1.8c-0.6,0.4-1.2,0.8-1.8,1.4
	c-0.6,0.6-1,1.2-1.4,1.8c-0.8,1.2-1.6,2.7-2,4.1c-0.6,1.4-0.8,2.9-1,4.5c-0.2,1.6,0,3.3,0.2,4.9c0.2,0.6,0.2,1.4,0.4,2
	c0.2,0.8,0.6,1.6,0.8,2.1c0.6,1.4,1.6,2.1,2.7,2.9c1.2,0.8,2.7,1.2,4.1,1.8c0.2,0.2,0.6,0.2,0.8,0.4c0.8,0.2,1.6,0,2.3-0.4
	c0.6-0.4,1.2-1,1.4-1.8c0.2-0.8,0.2-1.6-0.4-2.3c-0.4-0.8-1-1-1.8-1.4c-0.8-0.2-1.6-0.6-2.1-0.8c-0.4-0.2-0.8-0.4-1.4-0.8l-0.2-0.2
	c-0.2-0.2-0.2-0.4-0.4-0.6c-0.4-1-0.6-2-0.8-3.1c-0.2-1.2-0.2-2.1,0-3.3c0.2-1,0.4-2,0.8-3.1c0.4-1,1-1.8,1.4-2.5l0.8-0.8
	c0.6-0.4,1.4-1,2.1-1.2c1-0.4,2.1-0.8,3.1-1c1.2-0.2,2.1,0,3.3,0c0.2,0,0.6,0.2,0.8,0.2c0.8,0.4,1.6,0.8,2.1,1.2
	c0.6,0.4,1,1,1.4,1.4c0.6,0.8,1,1.8,1.4,2.7c0.4,1,0.6,2,0.8,2.9c0.2,1,0.2,2.1,0,3.1c0,1.6,1.4,2.9,2.9,2.9s2.9-1.4,2.9-2.9
	c0.2-2.5-0.2-5.3-1.2-7.6c-0.4-1.2-1-2.3-1.6-3.3c-0.6-1.2-1.4-2.1-2.3-2.9c-1-1-2-1.6-3.1-2.1c-0.6-0.4-1.2-0.6-2-0.8
	c0.2,0.2-0.6,0.2-1.4,0c-0.8,0-1.4-0.2-2.1-0.2C233.5,98.7,233.1,98.9,232.3,98.9z M242.7,112.7v0.2V112.7z M317.6,131.2
	c-0.4-0.2-0.8-0.2-1.2-0.2c-1.6,0.2-2.9,0.2-4.5,0.8c-1.4,0.4-2.7,1-3.9,1.8c-1.4,1-2.5,2.1-3.5,3.7s-1.2,3.3-1.4,5.1
	c-0.2,1.8,0.2,3.7,1.2,5.3c0.8,1.2,2,2,2.9,2.9c1,0.8,2.1,1.4,3.3,1.8c1,0.4,2.1,0.6,3.1,1c1.4,0.6,2.7,1.4,4.1,2.3
	c0.8,0.6,1.4,1.4,2,2.1c0.6,0.8,1.2,1.6,1.6,2.5c0.6,0.8,1,1.8,1.6,2.5c0.8,1.6,1.4,2.9,2.3,4.5c0.6,1,1.2,2,2.1,2.7
	c1.2,1,2.5,1.8,3.9,2.1c0.8,0.2,1.4,0.4,2.1,0.4c1.2,0.2,2.1-0.2,3.1-0.6c1-0.4,2-1.2,2.7-2c0.8-0.8,1.6-1.8,2.1-2.7
	c0.4-0.6,0.6-1.4,0.8-2.1c0.2-0.8,0.4-1.8,0.6-2.7c0.4-2.7,0-5.7-0.8-8.4c-0.4-1.2-0.8-2.3-1.4-3.5l-1.2-2.3
	c-0.8-1.6-1.8-2.9-2.5-4.3c-1-2-2.3-3.7-3.7-5.3c-0.8-1-1.8-1.8-2.9-2.3c-1-0.4-1.8-1-2.7-1.4c-0.2-0.2-0.6-0.2-0.8-0.4
	c-1-0.8-2-1.4-2.7-2c-0.4-0.4-0.8-0.6-1.4-0.8c-0.4-0.2-0.8-0.4-1.4-0.6c-0.8-0.2-1.6-0.2-2.1-0.2h-0.2
	C318.3,130.7,318,130.9,317.6,131.2z M316.4,136.7c0.6,0,1.2-0.2,1.6-0.4c0.4,0.2,0.8,0.2,1.2,0.2h0.4c0.6,0.4,1.2,0.8,1.8,1.2
	l1.8,1.2c0.4,0.4,0.8,0.6,1.2,0.8s1,0.4,1.4,0.6c1,0.4,1.8,0.8,2.7,1.4l1.8,1.8c1.2,1.8,2.1,3.5,3.3,5.3c1,1.6,1.8,3.1,2.5,4.7
	c0.6,1.6,1.2,3.3,1.4,5.1c0.2,1.2,0,2.3,0,3.5c-0.2,0.6-0.2,1.4-0.6,2c-0.2,0.4-0.4,0.8-0.6,1c-0.4,0.6-1,1-1.4,1.4
	c-0.2,0.2-0.4,0.2-0.4,0.2h-0.2c-0.4,0-0.6-0.2-1-0.2c-0.6-0.2-1.2-0.6-1.6-1l-0.4-0.4c-1-1.4-1.6-2.9-2.3-4.3l-1.2-2.3
	c-0.6-1-1.2-1.8-1.6-2.5c-0.6-1-1.4-2-2.1-2.9c-0.8-1-1.6-1.6-2.5-2.3c-2.1-1.6-4.5-2.7-6.8-3.5c-0.6-0.2-1.4-0.4-2-0.6
	c-0.8-0.4-1.6-0.8-2.1-1.4c-0.2-0.2-0.6-0.4-0.8-0.8c0,0,0-0.2-0.2-0.2c0-0.2-0.2-0.4-0.2-0.6v-1.8c0-0.4,0.2-0.8,0.4-1.2
	c0.2-0.2,0.2-0.6,0.4-0.8c0.4-0.4,0.8-1,1.4-1.4c0.4-0.4,1-0.6,1.4-0.8l2.3-0.6C315.4,136.9,315.8,136.9,316.4,136.7L316.4,136.7z
	 M337.1,162.3v0.2C336.9,162.5,337.1,162.5,337.1,162.3z M290.8,121.5c-0.6,0.2-1.2,0.4-1.8,0.8c-0.8,0.4-1.4,1-2.1,1.6
	c-1.4,1.2-2.5,2.9-3.1,4.7c-0.6,1.6-0.6,3.1,0,4.7c0.4,1.4,1.2,2.5,2.1,3.7c1,1.2,2.3,2,3.7,2.3c0.8,0.2,1.8,0.4,2.7,0.4
	c1,0.2,2.1,0.2,3.1-0.2c1.4-0.4,2.3-1.4,3.3-2.3c0.8-0.8,1.6-1.6,2-2.5c0.4-0.6,0.6-1.4,0.8-2.1c0.2-0.8,0.4-1.6,0.2-2.3
	c0-1.2-0.4-2-0.8-2.9c-0.4-1-1.2-1.8-2-2.5c-0.6-0.4-1.2-0.8-1.8-0.8c0-0.2-0.2-0.4-0.2-0.4c-0.4-0.8-1-1-1.8-1.4l-1.8-0.6
	c-0.4,0-0.8-0.2-1.2-0.2C292,121.1,291.4,121.3,290.8,121.5z M292.6,126.9c0.4,0.2,1,0.2,1.4,0.4c0.2,0,0.4,0,0.4,0.2
	c0.2,0.4,0.4,0.8,0.6,1l0.6,0.6c0.2,0.2,0.2,0.4,0.4,0.6v0.8c0,0.4-0.2,0.6-0.2,1c0,0.2-0.2,0.2-0.2,0.4c-0.4,0.6-1,1.2-1.6,1.6
	l-0.2,0.2h-1.4c-0.6,0-1-0.2-1.4-0.4c-0.2,0-0.2-0.2-0.4-0.2l-0.4-0.4c-0.2-0.4-0.6-0.8-0.8-1.2c0-0.2-0.2-0.4-0.2-0.6v-0.6
	c0-0.2,0.2-0.6,0.2-0.8c0.2-0.4,0.4-0.6,0.6-1l1-1l1.2-0.6C292.2,126.9,292.6,126.9,292.6,126.9z M201.7,161.3
	c-0.8,0.2-1.2,0.8-1.8,1.4c-0.8,1-1.4,2-2,2.9c-0.6,1-1.2,2.1-1.8,3.1c-1.2,2.3-2.1,4.7-2.9,7.2c-0.8,2.3-1.2,4.9-1.4,7.4
	c-0.2,1.2-0.2,2.3-0.2,3.5v3.5c-0.2,1.6,1.4,2.9,2.9,2.9c0.8,0,1.6-0.4,2.1-0.8c0.6-0.6,0.8-1.4,0.8-2.1v-3.9c0-1.2,0-2.5,0.2-3.7
	c0.2-1.4,0.4-2.9,1-4.3c0.4-1.6,1-3.3,1.8-4.9c0.6-1.4,1.2-2.7,2-3.9c0.8-1.4,1.8-2.7,2.7-4.1c0.4-0.6,0.4-1.6,0.4-2.3
	c-0.2-0.8-0.8-1.4-1.4-1.8c-0.4-0.2-1-0.4-1.6-0.4C202.1,161.3,201.9,161.3,201.7,161.3z M191.5,198.7c-0.6,0.6-1,1.4-0.8,2.1
	c0.2,1.2,0.2,2.1,0.4,3.3c0.2,0.8,0.2,1.6,0.4,2.5c0,0.6,0.2,1.2,0.4,1.8c0.2,0.8,0.6,1.4,1.4,1.8c0.6,0.4,1.6,0.6,2.3,0.2
	c0.8-0.2,1.4-0.8,1.8-1.4c0.4-0.6,0.6-1.6,0.2-2.3c-0.4-0.8-0.4-1.8-0.6-2.5c0-0.6-0.2-1.2-0.2-2c0-0.6-0.2-1.2-0.2-1.6
	c0-0.8-0.2-1.6-0.8-2.1c-0.6-0.6-1.4-0.8-2.1-0.8S192.1,198.2,191.5,198.7z M285.6,242.8c-1.4,0.2-2.7,0.8-3.9,1.6
	c-1.4,1-2.9,2-3.9,3.3l-0.6,1.2c-0.4-0.2-0.6-0.2-1-0.4c-1.4-0.6-2.5-1.2-3.9-1.8c-1.2-0.6-2.5-0.8-3.9-1.2c-2-0.6-3.9-0.8-5.9-0.4
	c-1.6,0.4-3.1,1-4.5,2c-0.8,0.6-1.4,1.2-2,2c-0.6,0.6-0.8,1.4-1.2,2.1c-0.8,1.8-0.6,3.7-0.2,5.7c0.4,1.6,1.2,3.1,2.3,4.3
	c0.4,0.6,1,1,1.4,1.6l1.8,1.8c0.6,0.6,1.2,0.8,2.1,0.8c0.8,0,1.6-0.4,2.1-0.8c1-1,1.2-3.1,0-4.1c-1.2-1-2.3-2-3.3-3.1
	c-0.2-0.4-0.4-0.6-0.6-1c-0.2-0.4-0.2-0.6-0.2-1V254c0-0.2,0.2-0.6,0.2-0.8s0.2-0.4,0.2-0.6l0.6-0.6c0.4-0.2,0.8-0.6,1.2-0.8
	s1-0.4,1.4-0.4h1.4c0.8,0.2,1.8,0.4,2.5,0.6c0.8,0.2,1.6,0.6,2.3,0.8c0.8,0.4,1.6,0.6,2.1,1c1,0.4,2,0.8,2.7,1.4
	c0.4,0.2,0.8,0.6,1.4,0.8c1.4,0.8,3.1,0.8,4.3-0.4c1-1,1-2.3,1.4-3.5v-0.2l0.6-0.6c0.8-0.6,1.6-1.2,2.3-1.6c0.6-0.2,1.2-0.4,2-0.4
	c1.2-0.2,2.3-0.2,3.5,0c1,0.2,2,0.4,2.9,0.8c1.6,0.6,2.9,1.6,4.3,2.5l1.2,1.2c0.8,1.4,2.7,1.8,4.1,1s1.8-2.5,1-4.1
	c-0.8-1.4-2-2.3-3.1-3.1c-1-0.8-2-1.4-3.1-2c-2.5-1.6-5.3-2.1-8-2.3h-0.8C288.1,242.4,286.7,242.6,285.6,242.8L285.6,242.8z"/>
<path class="st1" d="M349.8,222.2c-1.6,0.2-3.1,0.4-4.7,1c-1.6,0.4-3.3,1-4.7,2c-1.4,0.6-2.5,1.8-3.7,2.5c-1.2,1-2.1,2-2.9,3.1
	c-1.2,1.2-2.1,2.5-2.9,3.9c-0.8,1.2-1.6,2.3-2.1,3.5c0,0.2-0.2,0.4-0.2,0.6c-2.3-2.3-5.9-2.9-9-2.9c-2.7,0-5.7,0.4-8.2,1.2
	c-1.6,0.4-3.1,1.2-4.3,2.1c-0.8,0.4-1.4,1.2-2,1.8s-1,1.2-1.6,1.8c-1.4,1.6-2.1,3.3-3.1,5.3c-0.2,0.6-0.4,1.2-0.4,1.8
	c-0.2,1-0.2,2.1-0.2,3.1c0,1.6,1.4,2.9,2.9,2.9c1.6,0,2.9-1.4,2.9-2.9v-2.1c0-0.4,0.2-0.8,0.4-1.4l1.8-2.9c0.6-0.8,1.4-1.6,2.1-2.1
	l2.3-1.2c1.4-0.6,2.7-0.8,4.1-1c1.8-0.2,3.5-0.4,5.5-0.2c0.6,0.2,1.2,0.2,1.8,0.4c0.2,0.2,0.6,0.2,0.8,0.4c0.4,0.2,0.6,0.6,0.8,0.8
	l1.8,2.9c0.2,0.4,0.2,0.8,0.4,1c0.4,1,1.6,1.4,2.5,1.4c1.4,0,2.5-1,2.7-2.1c0.2-0.6,0.2-1.2,0.2-1.8c0.2-1.2,0.6-2.1,1-3.1
	c0.4-1,0.8-2,1.4-2.7c0.6-1,1.4-2,2-2.9c1.8-2.1,3.5-3.9,5.5-5.7c0.6-0.4,1.2-0.8,2-1.2c1.8-0.6,3.5-1.2,5.3-1.4
	c1.2-0.2,2.3-0.2,3.5-0.2c1.4,0.2,2.5,0.8,3.7,1.2c0.4,0.2,0.8,0.4,1,0.6c0.4,0.2,0.8,0.4,1,0.8c0.8,0.6,1.4,1.2,2,2
	c0.8,1,1.4,2,1.8,2.9c0.4,1,0.6,2.1,0.8,3.1c0.2,1.6,0.2,3.3,0,4.9c-0.4,2.3-1.6,4.7-2.1,6.8c-0.2,0.6-0.4,1-0.6,1.6s-0.4,1.6,0,2.1
	c0.2,0.6,0.4,1,0.8,1.4s0.8,0.6,1.4,0.8c1.4,0.4,2.5-0.4,3.7-1c0.4,0,0.6-0.2,1-0.2h2.1c0.6,0.2,1.4,0.2,2,0.6
	c0.6,0.2,1.2,0.6,1.6,1c0.6,0.4,1,1,1.4,1.6c0.8,1,1.4,2.1,2,3.3c0.2,0.4,0.2,1,0.4,1.4c0.4,1.6,2.1,2.5,3.5,2.1
	c1.6-0.4,2.5-2.1,2-3.5c-0.6-2-1.4-4.1-2.7-5.7c-1.4-2-3.1-3.7-5.3-4.7c-2-1-4.3-1.6-6.6-1.4c0.4-0.8,0.6-1.8,1-2.5
	c1-3.1,0.8-6.2,0.2-9.4c-0.2-1.4-0.6-2.9-1.2-4.3c-0.6-1.4-1.4-2.5-2.1-3.5c-0.8-1.2-1.8-2.1-2.9-3.1c-0.6-0.4-1.2-1-2-1.4
	c-0.8-0.6-1.6-0.8-2.3-1.2c-1.4-0.6-2.5-1-4.1-1.4c-0.8-0.2-1.8-0.2-2.5-0.2C351.1,222.2,350.3,222.2,349.8,222.2L349.8,222.2z
	 M363.2,238.7v0.2V238.7z M333.2,242.2v0.2V242.2z M253.8,246.9h-2c-1.8,0-3.5,0.2-5.1,0.6c-0.4,0-0.6,0-1,0.2c0.2,0,0.6,0,0.8-0.2
	c-1.8,0.2-3.7,0.2-5.5,0h-2.3c-1.2,0-2.3,0.2-3.5,0.4c-0.4,0-1,0.2-1.4,0.2c-0.4,0-0.8,0.2-1.2,0.2c-0.6,0-1.4,0.2-2,0.6
	c-1.2,0.8-1.6,1.8-1.6,3.1v2.1c0,1-0.2,2-0.2,2.9c0,1.4,0.2,2.9,0.6,4.3c0.2,1.6,2.1,2.3,3.5,2c0.8-0.2,1.4-0.8,1.8-1.4
	c0.4-0.8,0.4-1.4,0.2-2.3c0-0.4-0.2-0.8-0.2-1.4c-0.2-1.4-0.2-2.5,0-3.9v-0.8c0.4,0,1-0.2,1.4-0.2c1-0.2,1.8-0.2,2.7-0.2h5.3
	c1.4,0,2.5-0.2,3.7-0.4c-0.2,0-0.6,0-0.8,0.2c0.8-0.2,1.6-0.2,2.3-0.4c1-0.2,2-0.2,3.1-0.2h1.6c0.6,0,1.2-0.2,1.8,0
	c0.8,0,1.6-0.4,2.1-0.8c0.6-0.6,0.8-1.4,0.8-2.1c0-0.8-0.4-1.6-0.8-2.1c-0.6-0.6-1.2-0.8-2.1-0.8h-0.4
	C254.7,246.7,254.2,246.9,253.8,246.9L253.8,246.9z M235.8,247.7h-0.4C235.4,247.9,235.6,247.9,235.8,247.7z M233.3,248.1h-0.2
	H233.3z M234.7,257.7v0.2V257.7z"/>
<path class="st1" d="M250.3,235.8c-0.8,0.2-1.2,0.8-1.8,1.4c-0.4,0.6-0.6,1.2-1,2c-0.2,0.4-0.2,0.8-0.4,1.2l-0.6,2.3v2.3
	c0,1.6,0.4,2.9,0.8,4.5c0.4,1.6,2.1,2.5,3.5,2c1.6-0.4,2.5-2.1,2.1-3.5l-0.6-2.3c0-0.8-0.2-1.8-0.2-2.5c0-0.4,0.2-0.6,0.4-1
	s0.2-0.8,0.4-1.2c0.2-0.2,0.2-0.4,0.4-0.6c0.4-0.6,0.4-1.6,0.2-2.3c-0.2-0.8-0.8-1.4-1.4-1.8c-0.4-0.2-1-0.4-1.6-0.4
	C250.7,235.8,250.3,235.8,250.3,235.8z M310.7,217.1c-0.8,1.4-0.4,3.1,1,4.1c0.6,0.4,1.2,0.6,1.6,1l0.8,0.8c0.8,1,1.4,2.3,2,3.5
	c0.6,1.6,1,3.1,1.4,4.9c0.2,2,0.2,4.1,0.2,6v0.4c-0.4,1.6,0.4,3.1,2,3.5c1.6,0.4,3.3-0.6,3.5-2.1c0.6-2.1,0.4-4.7,0.2-7
	c-0.2-2.1-0.4-4.3-1.2-6.4c-0.6-1.8-1.6-3.5-2.5-5.1c-0.6-1-1.2-1.8-2-2.5c-1-1-2-1.6-3.1-2.1c-0.4-0.2-1-0.4-1.4-0.4
	C312.3,215.7,311.3,216.3,310.7,217.1z M322.8,213.4c-0.8,0.2-1.4,0.8-1.8,1.4c-0.8,1.4-0.4,3.3,1,4.1c1,0.4,2,1,2.7,1.6
	c1,0.8,2,2,2.7,2.9c1,1.4,1.8,2.5,2.5,4.1c0.6,1.6,1,3.1,1.2,4.7c0,0.6,0,1.4,0.2,2c0.2,0.8,0.2,1.6,0.8,2.1
	c0.6,0.6,1.4,0.8,2.1,0.8s1.6-0.4,2.1-0.8c0.4-0.6,1-1.4,0.8-2.1c-0.2-1.2-0.2-2.3-0.4-3.5c-0.2-0.8-0.4-1.8-0.6-2.5
	c-0.6-2-1.4-3.9-2.5-5.7c-1.2-1.8-2.5-3.3-3.9-4.9c-0.8-0.8-1.6-1.4-2.3-2c-0.8-0.6-1.8-1-2.5-1.4c-0.6-0.2-1-0.4-1.6-0.4
	C323.4,213.2,323.2,213.4,322.8,213.4z M391.5,148.6c-0.6,0.4-1.2,1-1.4,1.8c-0.2,0.6-0.2,1.8,0.4,2.3c0.6,0.8,1.2,1.6,1.8,2.1
	c0.8,1,1.4,2.1,2,3.1c0.8,1,1.6,2,2.3,3.1c0.8,1,1.4,2.1,1.8,3.3c0.8,2,1.4,3.9,1.8,5.9c0,0.4,0.2,0.8,0.2,1.2
	c0.2,2.1,0.4,4.3,0.2,6.2c-0.4,2-1,4.1-1.8,5.9c-0.4,1-1,2-1.6,2.7c-1.4,1.6-2.7,3.1-4.3,4.7l-2.3,2.3c-1,0.8-1.8,1.8-2.7,2.7
	c-1,1.2-2.1,2.3-2.9,3.7c-0.8,1.2-1.4,2.5-1.8,3.7c-0.4,1.4-0.8,2.7-0.8,4.3v6.4c0,0.4-0.2,0.8-0.4,1.2c-0.2,0.4-0.4,1-0.8,1.4
	l-0.4,0.4c-0.4,0.2-0.8,0.2-1.2,0.4c-1.8,0.2-3.5,0.4-5.3,0.4c-2.1,0-4.3-0.4-6.4,0.4c-1.6,0.4-2.5,2-2.1,3.5c0.4,1.6,2.1,2.5,3.5,2
	c0.2,0,0.4-0.2,0.6-0.2h7.2c2.9-0.2,6.2-0.4,8.4-2.7c0.8-0.8,1.2-1.8,1.8-2.7l0.6-1.8c0.2-0.8,0.2-1.6,0.4-2.1V211
	c0-1.2,0-2.3,0.2-3.7c0.2-1,0.4-2,0.8-2.9c0.4-0.8,0.8-1.6,1.4-2.1c0.8-1,1.6-2,2.5-2.9c0.8-1,1.8-1.8,2.7-2.5
	c1.6-1.6,3.1-3.1,4.5-4.9c1-1,1.8-2,2.5-3.1c0.8-1.2,1.2-2.3,1.8-3.5c1-2.5,1.8-5.1,2-7.8c0.2-2.1,0-4.5-0.4-6.6
	c-0.2-1.6-0.4-3.1-0.8-4.7c-0.4-1.2-0.8-2.3-1.4-3.5c-0.6-1.4-1.2-2.7-2-3.9c-0.6-1-1.4-1.8-2.1-2.7c-0.6-1-1.2-1.8-1.8-2.7
	c-0.4-0.8-1-1.4-1.4-2c-0.4-0.6-0.8-1-1.2-1.6c-0.4-0.6-1-1.2-1.8-1.4c-0.2,0-0.6-0.2-0.8-0.2C392.5,148.2,391.9,148.2,391.5,148.6
	L391.5,148.6z M400.3,171.6v0.2V171.6z"/>
<path class="st1" d="M408.7,180.6c-0.2,0.8-0.2,1.8-0.4,2.5c0,0.6,0.2,1.2,0.2,1.8c0,0.2,0.2,0.6,0.2,0.8c0.2,0.6,0.4,1.4,0.6,2v2.3
	c-0.2,0.6-0.2,1.4-0.6,2c-0.4,1-1,1.8-1.6,2.5c-1,1.2-2,2.1-3.1,2.9c-1.6,1.2-3.1,2.3-4.9,3.1c-0.6,0.2-1.2,0.4-1.8,0.8
	c-0.6,0.2-1.2,0.4-1.6,0.8c-0.6,0.2-1,0.6-1.4,1c-1,0.8-1.8,2-2.1,3.1c-0.4,1-0.4,2.1-0.4,3.3c0,1.4,0.4,2.5,0.8,3.7
	c0.2,0.6,0.6,1.4,1,2s0.6,1.2,1,2c0.4,0.6,0.6,1,1,1.6c0,0.2,0.2,0.4,0.2,0.6v0.8c0,0.2,0,0.2-0.2,0.4c0,0.2-0.2,0.4-0.2,0.4
	c-0.6,0.8-1.4,1.4-2.1,2.1l-2.9,1.8c-2.3,1-4.7,1.8-7.2,2c-1.2,0.2-2.1,0.2-3.3,0.4c-1,0.2-2,0.4-2.7,0.4h-2.5
	c-1.6,0-2.9,1.4-2.9,2.9c0,1.6,1.4,2.9,2.9,2.9h2.1c0.8,0,1.8-0.2,2.5-0.4c1.2-0.2,2.1-0.4,3.3-0.6c1.4-0.2,2.5-0.4,3.9-0.6
	c1.4-0.2,2.5-0.6,3.7-1.2c1.4-0.4,2.7-1,4.1-1.8c1.6-0.8,2.7-1.8,4.1-2.9c1.4-1.2,2.5-2.5,3.1-4.1c0.8-2,0.6-4.3-0.2-6.2
	c-0.4-1-1.2-2-1.6-2.7l-1.2-2.3c-0.2-0.4-0.2-0.6-0.2-1v-1.2c0-0.2,0-0.2,0.2-0.4c0-0.2,0.2-0.2,0.2-0.4c0.2-0.2,0.2-0.4,0.4-0.4
	c0.2-0.2,0.6-0.4,0.8-0.4l2.9-1.2c1.2-0.6,2.1-1.2,3.1-1.8c1.2-0.8,2.3-1.8,3.5-2.5c1-0.8,2-1.6,2.7-2.5c1.8-2.1,3.1-4.5,3.5-7.4
	c0.2-1.6,0.4-3.1,0.2-4.9c-0.2-1-0.6-2-0.8-2.9V182c0.2-0.8,0.2-1.6-0.2-2.3c-0.4-0.6-1-1.2-1.8-1.4h-0.8
	C410.2,178.5,408.9,179.2,408.7,180.6L408.7,180.6z M383.3,226.4h-0.2H383.3z M388,159.9c-0.8,0.2-1.4,0.8-1.8,1.4s-0.6,1.6-0.2,2.3
	c0.8,2,1.4,3.7,1.6,5.9c0,0.8,0.2,1.6,0,2.1c-0.2,0.6-0.2,1.2-0.6,1.6c-0.4,1-1,1.8-1.4,2.5c-0.8,1.2-1.6,2.5-2.1,3.9
	c-0.4,0.8-0.6,1.4-0.4,2.3c0.2,0.8,0.8,1.4,1.4,1.8c1.4,0.8,3.3,0.4,4.1-1c0.8-1.8,2-3.3,2.9-5.1c0.6-0.8,0.8-1.6,1.2-2.5
	c0.2-0.8,0.6-1.4,0.6-2.1c0.6-3.7-0.4-7.4-1.8-10.9c-0.2-0.8-0.6-1.4-1.4-1.8c-0.4-0.2-1-0.4-1.6-0.4H388L388,159.9z M229.4,311.1
	c-1.4,0.4-2.5,1-3.9,1.4c-1.6,0.4-2.9,0.8-4.5,1.2c-2.9,0.6-5.9,1.4-8.8,1.8c-1,0.2-2,0.2-2.9,0.4h0.2c-2.7,0.4-5.7,0.8-8.4,0.6
	c-2.9,0-5.9-0.4-8.8-0.6c-1-0.2-1.8-0.4-2.5-0.6c-1.6-0.4-3.1,0.4-3.5,2c-0.4,1.6,0.4,3.3,2,3.5c3.7,0.8,7.6,1.2,11.5,1.4
	c1.8,0.2,3.5,0.2,5.3,0c2-0.2,3.9-0.4,6-0.8c1.8-0.2,3.3-0.4,5.1-0.8l5.3-1.2c1.8-0.4,3.5-0.6,5.1-1.2c1.6-0.4,3.1-1.2,4.7-1.6
	c1.6-0.6,2.5-2,2.1-3.5c-0.4-1.2-1.6-2.1-2.7-2.1C230,311.1,229.6,311.1,229.4,311.1L229.4,311.1z M211.8,315.6h-0.2H211.8z
	 M210.7,321.5h-0.2C210.5,321.6,210.5,321.6,210.7,321.5z"/>
<path class="st1" d="M228.8,312.3c-0.6,0.6-1,1.4-0.8,2.1c0,0.6,0.2,1.4,0.2,2c0.2,2.1,0.6,4.3,1,6.4c0.4,2.1,1,4.5,1.6,6.6
	c0.6,2.1,1,4.3,1.6,6.4c0.2,1.2,0.6,2.3,0.8,3.3c0.2,1.2,0.6,2.3,0.8,3.5c0.4,1.6,2.1,2.5,3.5,2c1.6-0.4,2.5-2.1,2-3.5
	c-0.6-2-1-3.9-1.4-5.9c-0.4-2-0.8-3.9-1.4-5.9c-0.4-2-1-3.9-1.6-5.9c-0.4-1.8-0.8-3.7-1-5.5c-0.2-1-0.2-2-0.4-2.9v-0.8
	c0-0.8-0.2-1.6-0.8-2.1c-0.6-0.6-1.4-0.8-2.1-0.8C230.2,311.5,229.4,311.9,228.8,312.3z"/>
<path class="st1" d="M234.5,344.1c-0.2,0.4-0.6,1-0.8,1.4l-1.2,1.8c-0.8,1-1.4,1.8-2.3,2.5c-0.8,0.8-1.6,1.6-2.5,2.3
	c-1.4,1-2.7,1.6-4.1,2.3c-1.6,0.8-3.1,1.8-4.7,2.3c-1.4,0.6-2.7,1-4.1,1.6c-1.6,0.6-3.1,1.2-4.9,1.8c-3.1,1-6.2,2-9.6,2.5
	c-3.3,0.4-6.6,0.6-9.9,0.8c-3.5,0.2-7.2,0.2-10.7,0c-0.4,0-0.8-0.2-1.2-0.2c-0.8-0.2-1.6-0.2-2.3,0.2c-0.6,0.4-1.2,1-1.4,1.8
	s-0.2,1.6,0.2,2.3c0.4,0.6,1,1.2,1.8,1.4c1.8,0.4,3.5,0.4,5.3,0.6h4.5c2.9,0,5.7-0.4,8.6-0.6c3.1-0.2,6.2-0.4,9.4-1.2
	c2.9-0.6,5.7-1.6,8.4-2.5c1.4-0.4,2.7-1,4.1-1.6c1.6-0.6,2.9-1,4.5-1.8c2.5-1.2,5.1-2.7,7.6-4.1c2.3-1.4,4.1-3.1,5.9-5.1
	c1.6-1.6,2.7-3.3,3.7-5.3c0.2-0.4,0.6-1,0.6-1.4c0.6-1.6-0.6-3.1-2-3.5c-0.2,0-0.6-0.2-0.8-0.2C236,342.3,235,343.1,234.5,344.1
	L234.5,344.1z M248.9,305.8l-2.3,0.6c-0.8,0.2-1.8,0.4-2.5,0.8c-1.2,0.4-2.1,0.6-3.3,0.8c-1.2,0.4-2.3,0.6-3.7,0.8
	c0.2,0,0.6,0,0.8-0.2c-1.4,0.2-2.7,0.4-4.1,0.8c-1.2,0.2-2.3,0.4-3.3,0.6c-0.8,0.2-1.4,0.8-1.8,1.4s-0.6,1.6-0.2,2.3
	c0.2,0.8,0.8,1.4,1.4,1.8c0.8,0.4,1.4,0.4,2.3,0.4c1-0.2,2.1-0.4,3.1-0.6c1.2-0.2,2.1-0.6,3.3-0.8c-0.2,0-0.6,0-0.8,0.2
	c1.6-0.2,3.1-0.4,4.7-1c1.2-0.4,2.3-0.6,3.7-1c1-0.4,2-0.6,2.9-0.8c0.2,0,0.4-0.2,0.6-0.2c0.4,1.2,0.6,2.3,0.8,3.5
	c0,0.6,0.2,1.2,0.2,1.8c0.2,1,0.2,2,0.4,2.9c0.2,0.8,0.4,1.8,0.6,2.5c0.4,1.8,0.6,3.5,1,5.5c0.4,1.8,0.8,3.3,1.2,5.1
	c0.4,1.6,0.8,3.1,1.2,4.9c0.4,1.6,2.1,2.3,3.5,2c0.8-0.2,1.4-0.8,1.8-1.4c0.4-0.8,0.4-1.4,0.4-2.3c-0.4-1.6-0.8-2.9-1.2-4.5
	s-0.8-3.3-1.2-4.9c-0.4-1.8-0.6-3.3-1-5.1c-0.2-0.8-0.2-1.8-0.4-2.5c-0.2-1-0.4-1.8-0.6-2.7v0.2c0-0.4-0.2-1-0.2-1.4
	c0,0.2,0,0.6,0.2,0.8c-0.2-2.1-0.6-4.5-1.4-6.6l-0.6-1.8c-0.4-0.8-1-1.4-1.6-1.8c-0.4-0.4-1.2-0.4-1.8-0.4
	C250.3,305.5,249.7,305.6,248.9,305.8z"/>
<path class="st1" d="M256.1,338l0.2-0.2c-0.4,0.2-0.8,0.6-1.4,0.8c-1.4,0.6-2.5,1-3.9,1.4c-1.6,0.4-3.1,0.8-4.5,1.2
	c-1.4,0.4-2.5,0.8-3.9,1c-1.2,0.2-2.3,0.6-3.3,0.8h-0.2c-0.8,0-1.6,0.2-2.1,0.8c-0.6,0.6-0.8,1.4-0.8,2.1c0,0.8,0.4,1.6,0.8,2.1
	c0.6,0.6,1.4,1,2.1,0.8c1-0.2,2.1-0.2,3.1-0.4c0.8-0.2,1.6-0.4,2.3-0.4c1.6-0.4,3.3-1,4.9-1.4c1.8-0.6,3.7-1,5.5-1.6
	c2-0.6,3.7-1.4,5.3-2.5c0.6-0.4,0.8-1.4,0.8-2.1c0-0.8-0.4-1.6-0.8-2.1c-0.6-0.6-1.4-0.8-2.1-0.8C257.1,337.4,256.5,337.6,256.1,338
	L256.1,338z M254.7,338.8c0,0-0.2,0-0.2,0.2C254.6,338.8,254.6,338.8,254.7,338.8z M242.5,317.7c-0.8,0.2-1.4,0.8-1.8,1.4
	c-0.4,0.8-0.4,1.4-0.4,2.3c0.4,2.3,0.8,4.7,1.6,6.8c0.2,0.8,0.6,1.4,1.4,1.8c0.6,0.4,1.6,0.6,2.3,0.4c1.4-0.4,2.5-2.1,2-3.5
	c-0.8-2.1-1.2-4.5-1.6-6.8c-0.2-0.8-0.8-1.4-1.4-1.8c-0.4-0.2-1-0.4-1.6-0.4C243,317.6,242.7,317.7,242.5,317.7L242.5,317.7z
	 M278.7,299.4c-1.2,0-2.3,0.2-3.5,0.8c-0.2,0-0.4,0.2-0.4,0.2h0.2c-0.2,0.2-0.6,0.2-0.8,0.4c-2,0.8-3.9,1.8-5.9,2.7
	c-0.8,0.4-1.8,1-2.5,1.4c-0.8,0.6-1.8,1-2.7,1.6c-0.8,0.4-1.8,0.8-2.5,1.4c-0.8,0.4-1.6,1-2.3,1.4l-2.3,1.2
	c-1.2,0.6-2.1,1.6-2.9,2.3c-1.2,1-1.2,3.1,0,4.1c1.2,1.2,2.9,1,4.1,0c0.4-0.4,0.8-0.6,1.2-1s1-0.6,1.6-0.8c0.8-0.4,1.4-0.8,2.1-1.2
	c0.6-0.4,1.2-0.8,2-1.2l2.3-1.2c1.6-0.8,2.9-1.8,4.5-2.5c1.6-0.8,2.9-1.6,4.5-2.1c0.4-0.2,1-0.4,1.4-0.6c-0.2,0.2-0.4,0.2-0.8,0.4
	c0.4-0.2,1-0.4,1.4-0.6c-0.2,0.2-0.4,0.2-0.8,0.4l1.8-0.6c1.2-0.2,2.3-0.2,3.7,0l2.3,0.6c1,0.2,2,0.4,3.1,0.6c1,0.2,1.8,0.6,2.7,1
	c0.8,0.2,1.6,0.6,2.3,1c0.8,0.4,1.4,0.6,2.1,1c2,0.8,3.9,1.6,6,1.8c2.3,0.4,4.7,0.4,7,0.4c1,0,2,0,2.9-0.2c0.6-0.2,1.2-0.4,2-0.4
	c1.4-0.4,2.7-0.8,4.1-1h3.7l0.4,0.4c0,0.2,0,0.4,0.2,0.4v1.8c0,0.2-0.2,0.2-0.2,0.4c-0.8,1.4-0.2,3.3,1,4.1c1.4,0.8,3.1,0.2,4.1-1
	c0.4-0.8,0.8-1.6,1-2.3c0.2-0.8,0.2-1.4,0.2-2.1c0-0.8,0-1.4-0.2-2.1c0-0.4-0.2-0.6-0.2-1c-0.2-0.6-0.4-1-0.6-1.4
	c-1-1.4-2.3-2.7-4.1-2.9c-1.4-0.2-2.7-0.2-4.1,0c-1.8,0-3.5,0.4-5.1,0.8c-1.2,0.2-2.5,0.8-3.7,1s-2.3,0-3.3,0
	c-1.4,0-2.7-0.2-4.3-0.4c-1.4-0.2-2.9-0.8-4.3-1.2c-1-0.4-1.8-0.8-2.7-1.2c-0.8-0.4-1.6-0.6-2.3-1c-0.8-0.4-1.8-0.6-2.5-1
	c-1-0.2-1.8-0.4-2.7-0.6c-1.8-0.4-3.5-1-5.5-1h-0.6C280.1,299.4,279.3,299.4,278.7,299.4L278.7,299.4z M274.5,300.4
	c-0.2,0-0.2,0-0.4,0.2C274.3,300.6,274.5,300.4,274.5,300.4z M274.1,300.6c-0.2,0-0.4,0.2-0.6,0.2
	C273.7,300.8,273.9,300.8,274.1,300.6z M296.9,304.1C297.1,304.1,297.1,304.1,296.9,304.1z M321.3,310.3c0.2,0.2,0.2,0.4,0.4,0.4
	L321.3,310.3z M294.9,309.6C294.7,309.4,294.9,309.4,294.9,309.6c-0.2,0-0.2,0-0.2-0.2L294.9,309.6z"/>
<path class="st1" d="M320.3,312.5c-0.2,0.4-0.6,0.6-0.8,1c-0.4,0.4-0.8,0.6-1.4,1l-2.3,1.2c-0.2,0-0.4,0.2-0.6,0.2
	c0.2-0.2,0.4-0.2,0.8-0.2c-0.4,0.2-0.6,0.2-1,0.4s-0.8,0.4-1.2,0.4c-0.2,0.2-0.6,0.2-0.8,0.4c-0.2,0-0.4,0.2-0.6,0.2
	c-0.8,0.4-1.8,0.6-2.7,0.8c-1.4,0.4-2.5,0.8-3.9,1c-1.6,0.2-3.1,0-4.9,0c-0.8,0-1.6,0-2.3-0.2c-0.6,0-1.2,0-1.8-0.2
	c-0.6,0-1-0.2-1.6-0.4l-2.3-0.6c-1.6-0.4-2.9-0.8-4.5-1.2c-0.6-0.4-1.4-0.6-2-0.8c-1.2-0.2-2.1-0.2-3.3-0.4
	c-1.6-0.2-2.9,1.4-2.9,2.9c0,0.8,0.4,1.6,0.8,2.1c0.6,0.6,1.4,0.8,2.1,0.8c0.4,0,1,0,1.4,0.2c0.4,0,1,0.2,1.4,0.4c1,0.4,2,0.8,2.9,1
	s2,0.4,2.9,0.8c0.8,0.2,1.8,0.4,2.7,0.6s2,0.4,3.1,0.4c1,0,2,0.2,2.7,0.2h3.1c1.2,0,2.3,0,3.7-0.2c1-0.2,2-0.4,2.9-0.8
	c0.8-0.2,1.8-0.4,2.5-0.8c0.8-0.2,1.4-0.4,2-0.8c0.2,0,0.2-0.2,0.4-0.2l1.2-0.6H316c0.2,0,0.4-0.2,0.6-0.2c0.4-0.2,0.8-0.2,1-0.4
	c-0.2,0-0.4,0.2-0.6,0.2l1.2-0.6c0,0-0.2,0-0.2,0.2c1-0.4,2.1-1,3.1-1.6c0.4-0.2,0.8-0.6,1.2-0.8c0.4-0.2,0.8-0.6,1-0.8
	c0.4-0.2,0.6-0.6,1-1c0.6-0.6,0.8-1.2,0.8-2.1c0-0.8-0.4-1.6-0.8-2.1c-0.6-0.6-1.4-0.8-2.1-0.8C321.7,311.7,320.7,311.9,320.3,312.5
	z"/>
<path class="st1" d="M340.8,295.5c-2,0.4-3.9,0.8-5.7,1.4c-0.8,0.4-1.8,0.6-2.5,1c-0.8,0.2-1.8,0.6-2.5,0.8l-2.9,0.6
	c-0.8,0.2-1.8,0.6-2.5,0.8c-1.6,0.6-3.3,1-4.9,1.6c-1,0.4-2.1,0.6-3.1,1c-1,0.4-2.1,0.4-3.1,0.8c-2.1,0.6-4.3,1-6.4,1.4
	c-0.4,0-0.8,0.2-1,0.2c-1.2,0.2-2.3,0-3.5,0c-0.6-0.2-1.2-0.2-1.8-0.4c-0.4,0-0.8-0.2-1.2-0.2s-0.8-0.2-1.2-0.4
	c-0.8-0.2-1.8-0.4-2.5-0.6c-1-0.2-2-0.6-2.9-1c-0.8-0.2-1.6,0-2.3,0.4c-0.6,0.4-1.2,1-1.4,1.8c-0.2,0.8-0.2,1.6,0.4,2.3
	c0.4,0.8,1,1,1.8,1.4l3.5,1.2c0.4,0.2,1,0.2,1.4,0.4c0.4,0.2,1,0.4,1.4,0.4c1,0.2,2,0.4,2.7,0.6c1.4,0.4,2.9,0.4,4.3,0.4
	c1.4,0,2.7-0.2,4.1-0.4c1.2-0.2,2.3-0.4,3.5-0.8c2.1-0.4,4.1-1,6.2-1.4c1-0.2,2.1-0.6,3.1-1c0.8-0.2,1.8-0.6,2.5-0.8
	c0.4-0.2,0.8-0.2,1.2-0.4c0.4-0.2,0.8-0.2,1.4-0.4c0.8-0.2,1.6-0.6,2.5-0.8c1.8-0.4,3.7-0.8,5.5-1.4c0.8-0.2,1.8-0.6,2.5-1
	c1-0.4,1.8-0.6,2.7-0.8l2.9-0.6h1.6c0.4,0,1,0,1.4,0.2c0.4,0,0.8,0.2,1,0.2c0.4,0.2,0.6,0.4,1,0.6l0.8,0.8c0,0.2,0.2,0.2,0.2,0.4
	c0.2,0.4,0.2,0.8,0.4,1.2v0.4c0,0.2-0.2,0.4-0.2,0.8c-0.2,0.6-0.6,1.2-1,1.8c-0.2,0.2-0.4,0.4-0.8,0.6c-0.6,0.4-1.4,0.8-2,1.4
	c-0.6,0.4-1.2,0.8-2,1.2c-0.6,0.4-1.2,0.6-1.8,1s-1.2,0.6-1.8,1c-0.8,0.4-1.4,0.6-2.1,1c-0.8,0.4-1.6,0.8-2.1,1.2
	c-1.6,0.8-2.9,2-4.3,2.9c-1,0.6-2,1.2-2.9,2c-1.4,1-2.5,2-3.7,3.1c-0.8,1-1.8,1.8-2.5,2.7c-0.4,0.6-0.8,1.2-1.4,1.6
	c-0.6,0.4-1.4,0.8-2,1.2c-2.1,0.8-4.3,1.4-6.6,1.6c-0.8,0.2-1.4,0.8-1.8,1.4s-0.6,1.6-0.2,2.3c0.2,0.8,0.8,1.4,1.4,1.8
	c0.8,0.4,1.4,0.4,2.3,0.4c2.3-0.4,4.5-0.8,6.6-1.8c1.6-0.6,3.3-1.4,4.5-2.5c0.4-0.4,0.6-0.8,1-1.2c0.4-0.4,0.8-1,1.2-1.4
	c1.2-1.2,2.3-2.5,3.7-3.7c0.8-0.6,1.4-1,2.1-1.6c0.8-0.4,1.4-1,2.1-1.4c1.6-1,2.9-2,4.5-2.7c1.4-0.8,2.7-1.4,4.1-2
	c1.2-0.6,2.3-1.2,3.3-2c0.8-0.4,1.6-1,2.1-1.6c0.8-0.6,1.6-1,2.3-1.8c1-1,1.8-2.1,2.3-3.5c0.4-0.8,0.6-1.6,0.8-2.3
	c0-0.6,0.2-1.2,0.2-1.8c0-0.6-0.2-1.2-0.2-1.8c-0.4-1.8-1.2-3.1-2.3-4.3c-1.4-1.4-3.1-2.3-5.1-2.5c-1-0.2-2-0.2-2.9-0.4h-0.6
	C342.5,295.3,341.6,295.5,340.8,295.5L340.8,295.5z"/>
<path class="st1" d="M313.3,329.3c-0.6,0.2-1,0.4-1.6,0.6s-1.2,0.2-1.8,0.4c-0.8,0.2-1.4,0.2-2.1,0.4c-0.8,0.2-1.6,0.4-2.5,0.6
	c-1.4,0.4-2.7,0.6-4.3,1c-1.4,0.2-2.7,0.2-4.1,0.2h-8.2c-1.4,0-2.7,0.2-4.1,0.2c-2.7,0-5.5,0-8.2-0.4c-1.4-0.2-2.7-0.4-4.1-0.4
	c-1.2,0-2.5,0-3.9,0.2c-1,0-2.1,0.2-3.1,0.4c-2,0.2-3.7,0.2-5.7,0.2c-1.6,0-2.9,1.4-2.9,2.9c0,1.6,1.4,2.9,2.9,2.9h3.7
	c1.2,0,2.3-0.2,3.5-0.4c2.5-0.4,5.1-0.4,7.4,0c2.7,0.4,5.5,0.4,8.2,0.4c2.7,0,5.5-0.2,8.2-0.2h8.4c2,0,4.1-0.4,6-0.8
	c1.8-0.4,3.5-1,5.3-1.4c0.8-0.2,1.6-0.2,2.3-0.4c1-0.2,1.8-0.6,2.7-1c0.6-0.2,1.2-1.2,1.4-1.8c0.2-0.8,0.2-1.6-0.4-2.3
	c-0.4-0.6-1-1.2-1.8-1.4c-0.2,0-0.4-0.2-0.8-0.2C313.9,329.1,313.7,329.1,313.3,329.3L313.3,329.3z M300.8,332.2h-0.2H300.8z
	 M265.1,332.4h-0.2H265.1z M267.8,337.8h-0.2H267.8z M383.1,81.5c-1,0-1.6,0.4-2.1,0.8c-0.6,0.6-0.8,1.2-0.8,2.1V85
	c-0.2,1.4-0.4,2.9-0.6,4.3c-0.2,1.4-0.4,2.5-1,3.9l-0.6,1.2l-0.8,0.8c-0.4,0.2-0.8,0.4-1,0.6c-1.6,0.6-3.1,0.8-4.7,1.2H371
	c-0.4,0-0.8-0.2-1.2-0.2c-0.8-0.2-1.6-0.2-2.3-0.4c-0.8,0-1.4,0-2.1,0.2c-1.8,0.2-2.9,2.1-2.3,3.7c0.4,1.4,1.6,2.1,2.9,2.3
	c1.4,0.4,2.9,0.2,4.3,0.2c0.2,0,0.6,0.2,0.8,0.2c1,0.4,1.8,1,2.7,1.6c0.8,0.6,1.8,1,2.5,1.6l1.2,1.2c0.2,0.2,0.4,0.6,0.4,0.8
	c0.8,2,1.2,3.9,1.6,5.9c0,0.8,0.2,1.4,0.4,2.1c0,0.8,0.2,1.6,0.4,2.1c0,0.4,0,0.8,0.2,1.2c0.2,0.6,0.4,1.4,1,1.8
	c0.6,0.6,1.2,0.8,2.1,0.8c0.8,0,1.4-0.4,2.1-0.8c1-0.8,1-2.1,1.2-3.1c0-0.6,0-1.2,0.2-2c0.2-1.6,0.8-3.1,1.4-4.7
	c0.4-0.8,0.8-1.4,1.2-2c0.8-1,1.8-1.8,2.7-2.5c1.4-1,2.7-1.8,4.3-2.3c0.2,0,0.4-0.2,0.8-0.4c0.2,0,0.4-0.2,0.6-0.2
	c0.2,0,0.4-0.2,0.8-0.4c0.4-0.2,0.6-0.2,1-0.4c0.4-0.2,0.6-0.4,0.8-0.6c0.6-0.6,0.8-1.2,1-2.1c0-1-0.6-2.1-1.4-2.5s-1.6-0.4-2.3-0.4
	h-1.4c-0.4,0-0.6-0.2-1-0.2c-0.4-0.2-0.6-0.4-1-0.6c-1.2-1-2-2.1-2.9-3.1c-0.8-1.2-1.6-2.3-2.1-3.7c-0.4-1-0.8-1.8-1-2.7v-2.9
	c0.2-1.6-1.4-2.9-2.9-2.9C383.9,81.3,383.5,81.3,383.1,81.5L383.1,81.5z M379.4,100.6c0.8-0.4,1.4-1,2-1.4c0.6-0.6,1.2-1.4,1.8-2.1
	c0.4-0.6,0.8-1.4,1-2c0-0.2,0.2-0.2,0.2-0.4c0.6,1,1.2,1.8,1.8,2.5l-0.2-0.2l1.8,2.3l1.8,1.8c-0.2,0.2-0.4,0.4-0.8,0.4
	c-1.8,1.2-3.3,2.5-4.5,4.1c-0.2,0.4-0.6,0.8-0.8,1.2c0-0.2-0.2-0.4-0.2-0.6c-0.2-0.6-0.6-1.4-1-1.8c-0.4-0.6-0.8-1.2-1.4-1.6
	c-0.6-0.6-1.4-1.4-2.1-1.8C379,100.8,379.2,100.6,379.4,100.6L379.4,100.6z M379.2,115.2v0.2C379.4,115.4,379.4,115.4,379.2,115.2z
	 M433.3,127.7c0,1.6-0.2,3.1-0.4,4.7c0-0.2,0-0.6,0.2-0.8c0,0.4,0,0.8-0.2,1c-0.2,0.8-0.2,1.4-0.4,2.1v-0.6c-0.4,2-0.6,4.1-1.4,5.9
	c-0.4,0.6-0.6,1.2-1,1.8l-0.6,0.6c-1.2,0.8-2.3,1.6-3.5,2.1c-0.4,0.2-0.8,0.2-1.2,0.4c-1,0-1.8,0-2.7,0.2l-1.8,0.6
	c-1,0.4-2,1.6-1.8,2.7c0,1.2,0.8,2.5,2.1,2.7c1,0.2,2,0,2.9-0.2c0.6-0.2,1.2-0.2,1.8-0.4h0.8c1.2,0.2,2.3,0.4,3.3,0.8
	c0.6,0.2,1,0.6,1.4,0.8s0.6,0.6,0.8,0.8l0.6,1.2c0.4,0.8,0.6,1.6,0.6,2.3c0,0.6,0.2,1,0.2,1.6v-0.4c0.2,1.2,0.2,2.5,0.2,3.7
	c0,1.4,0,2.7,0.2,4.1c0.2,0.6,0.4,1.2,0.8,1.6c0.6,0.6,1.2,0.8,2.1,0.8c0.8,0,1.6-0.4,2.1-0.8c0.8-0.8,1-1.8,1.2-2.7
	c0.2-1.6,0.4-2.9,0.6-4.5c0.2-1.4,0.4-2.7,0.8-3.9c0.2-1.4,0.6-2.5,1-3.9c0.2-0.4,0.4-0.8,0.8-1.2c0.2-0.2,0.4-0.4,0.8-0.6
	c0.8-0.6,1.6-1,2.3-1.4c0.8-0.4,1.8-0.6,2.5-0.8l2.3-0.6c1-0.2,1.8-0.8,2.1-1.6c0.8-1.4,0.4-3.5-1.2-4.1c-0.8-0.4-1.6-0.6-2.3-0.8
	c-1.2-0.6-2.1-1.2-3.1-1.8c-1.4-0.8-2.5-1.6-3.9-2.3l-0.8-0.8c-0.4-0.4-0.6-1-0.8-1.6c-0.2-0.4-0.2-0.8-0.4-1.2
	c-0.2-1.6,0-3.3,0-4.9c0-1.2-0.6-2.1-1.8-2.5c-0.4-1.2-1.6-2-2.7-2C434.6,124.8,433.4,126.2,433.3,127.7L433.3,127.7z M434,146.7
	c0.6-0.4,1-1,1.4-1.6c0.8-1.2,1.2-2.3,1.8-3.5c0-0.2,0.2-0.4,0.2-0.8l1.2,1.2c1.4,1.2,2.9,2,4.3,2.7c-0.6,0.4-1.4,0.6-2,1
	s-1,0.8-1.6,1.2c-0.6,0.4-1,1-1.4,1.6c-0.6,0.6-1,1.4-1.2,2.1c-0.2-0.2-0.4-0.6-0.6-0.8c-0.8-0.8-1.6-1.6-2.3-2.1
	c-0.2-0.2-0.4-0.2-0.6-0.4C433.4,147,433.8,146.8,434,146.7L434,146.7z M446.5,149.4c0,0-0.2,0-0.2,0.2L446.5,149.4z M440.7,159.9
	v0.8C440.5,160.5,440.7,160.1,440.7,159.9z M331.6,159.3c0,1.8-0.2,3.5-0.4,5.3c0-0.2,0-0.6,0.2-0.8c-0.4,2.3-0.6,4.7-0.8,7.2
	l-0.6,2.9c-0.2,1.2-0.4,2.1-0.8,3.3c-0.2,0.2-0.2,0.6-0.4,0.8l-1.2,1.2c-1,0.8-2,1.4-3.1,2h-0.8c-1.4,0-2.7,0-4.1,0.2
	c-0.6,0-1.2,0-2,0.2h-1c-0.8,0-1.4,0.2-2,0.4c-1,0.4-1.4,1.6-1.4,2.5c0,1,0.6,2,1.4,2.5c0.4,0.2,1,0.4,1.4,0.4
	c0.8,0.2,1.6,0.2,2.3,0.4c1.4,0.2,2.7,0.2,3.9,0c0.8-0.2,1.6-0.2,2.3-0.4c0.2,0,0.6-0.2,0.8-0.2h0.4c0.6,0.2,1.2,0.2,1.8,0.4
	c0.8,0.4,1.6,0.8,2.3,1.4l0.6,0.6c0.4,0.6,0.8,1.2,1,1.8c0.4,1.2,0.6,2.1,0.8,3.3l0.6,2.9c0.2,1.2,0.2,2.3,0.4,3.3
	c0,0.8,0,1.4,0.2,2.1c0,1,0.6,2,1.4,2.5c1.2,0.6,2.7,0.6,3.5-0.4c0.8-0.8,1-1.8,1.2-2.9c0.2-1,0.4-2.1,0.6-3.1c0.4-2,0.6-4.1,1.4-6
	c0.6-1.2,1.2-2.3,2-3.5c0.8-1,1.6-1.8,2.3-2.5c0.6-0.4,1.2-0.8,1.6-1c1-0.4,1.8-0.6,2.7-0.8c0.6,0,1.4-0.2,2-0.2s1.4,0.2,2,0.2
	c1,0,2-0.2,2.7-1c1.4-1.2,1-3.7-0.6-4.7c-0.8-0.4-1.8-0.4-2.7-0.4h-1.2c-1-0.2-2-0.6-2.9-0.8c-1.2-0.2-2.1-0.6-3.3-1
	c-0.6-0.4-1.4-0.6-2-1.2c-0.6-0.6-1.2-1-1.6-1.6c-0.6-0.8-1.2-1.8-1.6-2.7c-0.6-1.4-0.6-2.9-1-4.3c-0.2-0.6-0.4-1.2-0.4-1.8
	c-0.2-0.4-0.2-1-0.2-1.4c0-0.4-0.2-1-0.2-1.4c0-1.2-0.6-2.1-1.6-2.5v-1.2c0-1.6-1.4-2.9-2.9-2.9C333,156.4,331.8,157.8,331.6,159.3
	L331.6,159.3z M334.3,180c0.6-1.4,1-2.9,1.4-4.5c0-0.2,0.2-0.4,0.2-0.8c0.6,1.4,1.4,2.7,2.3,3.9c0.8,1,1.8,1.8,2.7,2.5
	c0.6,0.4,1,0.8,1.6,1c-1.2,0.8-2.1,1.8-3.1,2.9c-0.6,0.8-1.4,1.6-2,2.5c-0.2,0.4-0.6,0.8-0.8,1.4c-0.4-1-1-2-1.6-2.7
	c-0.4-0.6-0.8-1.2-1.4-1.6c-0.6-0.6-1.2-1-1.8-1.4h-0.2C332.8,182.2,333.8,181.4,334.3,180z M148.2,166.4c-0.6,0.4-1.2,1-1.4,1.8
	c-0.2,0.8-0.2,1.6,0.2,2.3c0.4,0.6,1,1.2,1.8,1.4c1.6,0.4,3.1,0.6,4.7,1h-0.4c1.6,0.2,3.1,0.6,4.7,1c1.6,0.6,3.1-0.4,3.7-2
	c0.4-1.6-0.4-3.1-2-3.7c-1-0.4-2-0.6-2.9-0.8s-2.1-0.4-3.1-0.6l-2.9-0.6c-0.4,0-0.6-0.2-1-0.2C149,166,148.6,166.2,148.2,166.4z
	 M153.1,172.6h-0.2C152.9,172.4,153.1,172.6,153.1,172.6z M154.1,145.3c-0.8,1.4-0.4,3.3,1,4.1c3.1,1.8,6.2,3.5,9,5.9
	c0.4,0.4,0.8,0.8,1.2,1c0.6,0.6,1.2,1,2,1s1.6-0.2,2.1-0.8s1-1.2,1-2c0-0.8-0.2-1.6-0.8-2.1c-1-0.8-2-1.8-2.9-2.5
	c-1-0.8-1.8-1.4-2.7-2c-2-1.2-3.7-2.3-5.7-3.3c-0.6-0.2-1-0.4-1.6-0.4C155.6,143.9,154.7,144.3,154.1,145.3z M176.7,129.3
	c-1.4,0.8-2,2.5-1.2,3.9c1,1.8,2,3.5,2.7,5.3c0.2,0.6,1,1.2,1.8,1.4s1.6,0.2,2.3-0.2c0.6-0.4,1.2-1,1.4-1.8c0.2-0.8,0.2-1.6-0.2-2.3
	c-0.8-1.8-2-3.5-2.7-5.3c-0.6-1-1.6-1.6-2.5-1.6C177.7,128.9,177.1,129.1,176.7,129.3z"/>
</svg>
